<?xml version="1.0" encoding="UTF-8" standalone="no"?>
<svg
   xmlns:dc="http://purl.org/dc/elements/1.1/"
   xmlns:cc="http://creativecommons.org/ns#"
   xmlns:rdf="http://www.w3.org/1999/02/22-rdf-syntax-ns#"
   xmlns:svg="http://www.w3.org/2000/svg"
   xmlns="http://www.w3.org/2000/svg"
   xmlns:sodipodi="http://sodipodi.sourceforge.net/DTD/sodipodi-0.dtd"
   xmlns:inkscape="http://www.inkscape.org/namespaces/inkscape"
   width="20"
   height="28"
   viewBox="0 0 20 28"
   fill="none"
   version="1.1"
   id="svg8"
   sodipodi:docname="ico-address.svg"
   inkscape:version="0.92.5 (2060ec1f9f, 2020-04-08)">
  <metadata
     id="metadata14">
    <rdf:RDF>
      <cc:Work
         rdf:about="">
        <dc:format>image/svg+xml</dc:format>
        <dc:type
           rdf:resource="http://purl.org/dc/dcmitype/StillImage" />
      </cc:Work>
    </rdf:RDF>
  </metadata>
  <defs
     id="defs12" />
  <sodipodi:namedview
     pagecolor="#ffffff"
     bordercolor="#666666"
     borderopacity="1"
     objecttolerance="10"
     gridtolerance="10"
     guidetolerance="10"
     inkscape:pageopacity="0"
     inkscape:pageshadow="2"
     inkscape:window-width="1920"
     inkscape:window-height="1024"
     id="namedview10"
     showgrid="false"
     inkscape:zoom="33.714286"
     inkscape:cx="8.5259714"
     inkscape:cy="4.4868203"
     inkscape:window-x="0"
     inkscape:window-y="0"
     inkscape:window-maximized="1"
     inkscape:current-layer="svg8" />
  <path
     d="M10.4926 6.34257C8.61978 6.34257 7.09679 7.84346 7.09679 9.6873C7.09679 11.5329 8.61978 13.0338 10.4926 13.0338C12.3636 13.0338 13.8866 11.5329 13.8866 9.6873C13.8866 7.84346 12.3636 6.34257 10.4926 6.34257ZM10.4926 12.0773C9.15453 12.0773 8.06745 11.006 8.06745 9.6873C8.06745 8.37044 9.15453 7.29735 10.4926 7.29735C11.8289 7.29735 12.9178 8.37044 12.9178 9.6873C12.9178 11.006 11.8289 12.0773 10.4926 12.0773Z"
     fill="#FF2474"
     id="path2"
     style="fill:#ff7f05;fill-opacity:1" />
  <path
     d="M16.9841 3.28998C15.2271 1.56025 12.8916 0.605469 10.4077 0.605469C7.92069 0.605469 5.58588 1.56025 3.82825 3.28998C0.57916 6.4943 0.17416 12.5206 2.95459 16.173L10.4077 26.7784L17.8462 16.1873C20.6388 12.5206 20.2338 6.4943 16.9841 3.28998ZM17.0599 15.6293L10.4077 25.1001L3.74095 15.6149C1.22061 12.3013 1.58075 6.85817 4.51518 3.96633C6.09031 2.41705 8.1814 1.56264 10.4077 1.56264C12.6315 1.56264 14.7226 2.41705 16.2978 3.96633C19.2316 6.85817 19.5942 12.3013 17.0599 15.6293Z"
     fill="#FF2474"
     id="path4"
     style="fill:#ff7f05;fill-opacity:1" />
  <path
     d="M13.8866 9.6873H13.6366H13.8866ZM16.9841 3.28998L17.1596 3.11196L17.1595 3.11182L16.9841 3.28998ZM3.82825 3.28998L3.6529 3.11179L3.65271 3.11198L3.82825 3.28998ZM2.95459 16.173L3.15928 16.0291L3.15351 16.0216L2.95459 16.173ZM10.4077 26.7784L10.2031 26.9221L10.4077 27.2133L10.6123 26.9221L10.4077 26.7784ZM17.8462 16.1873L17.6472 16.0358L17.6416 16.0436L17.8462 16.1873ZM17.0599 15.6293L16.8608 15.4777L16.8553 15.4856L17.0599 15.6293ZM10.4077 25.1001L10.2032 25.2438L10.4078 25.5349L10.6123 25.2437L10.4077 25.1001ZM3.74095 15.6149L3.94563 15.4711L3.93993 15.4636L3.74095 15.6149ZM4.51518 3.96633L4.33987 3.7881L4.3397 3.78827L4.51518 3.96633ZM16.2978 3.96633L16.4733 3.78829L16.4731 3.7881L16.2978 3.96633ZM10.4926 6.09257C8.48526 6.09257 6.84679 7.70186 6.84679 9.6873H7.34679C7.34679 7.98505 8.75431 6.59257 10.4926 6.59257V6.09257ZM6.84679 9.6873C6.84679 11.6744 8.48517 13.2838 10.4926 13.2838V12.7838C8.7544 12.7838 7.34679 11.3914 7.34679 9.6873H6.84679ZM10.4926 13.2838C12.4983 13.2838 14.1366 11.6744 14.1366 9.6873H13.6366C13.6366 11.3915 12.2289 12.7838 10.4926 12.7838V13.2838ZM14.1366 9.6873C14.1366 7.70195 12.4982 6.09257 10.4926 6.09257V6.59257C12.229 6.59257 13.6366 7.98496 13.6366 9.6873H14.1366ZM10.4926 11.8273C9.28914 11.8273 8.31745 10.8645 8.31745 9.6873H7.81745C7.81745 11.1475 9.01992 12.3273 10.4926 12.3273V11.8273ZM8.31745 9.6873C8.31745 8.51182 9.28926 7.54735 10.4926 7.54735V7.04735C9.01979 7.04735 7.81745 8.22906 7.81745 9.6873H8.31745ZM10.4926 7.54735C11.6943 7.54735 12.6678 8.51194 12.6678 9.6873H13.1678C13.1678 8.22893 11.9635 7.04735 10.4926 7.04735V7.54735ZM12.6678 9.6873C12.6678 10.8643 11.6944 11.8273 10.4926 11.8273V12.3273C11.9634 12.3273 13.1678 11.1476 13.1678 9.6873H12.6678ZM17.1595 3.11182C15.3554 1.33578 12.9569 0.355469 10.4077 0.355469V0.855469C12.8264 0.855469 15.0987 1.78472 16.8087 3.46813L17.1595 3.11182ZM10.4077 0.355469C7.85548 0.355469 5.45757 1.33577 3.6529 3.11179L4.00361 3.46816C5.71419 1.78474 7.98591 0.855469 10.4077 0.855469V0.355469ZM3.65271 3.11198C1.977 4.7646 1.04408 7.13368 0.880921 9.54658C0.717753 11.9596 1.32262 14.4419 2.75567 16.3244L3.15351 16.0216C1.80613 14.2516 1.22328 11.8947 1.37978 9.58031C1.53628 7.26589 2.43041 5.01968 4.0038 3.46798L3.65271 3.11198ZM2.75005 16.3167L10.2031 26.9221L10.6122 26.6347L3.15914 16.0293L2.75005 16.3167ZM10.6123 26.9221L18.0508 16.331L17.6416 16.0436L10.2031 26.6347L10.6123 26.9221ZM18.0451 16.3388C19.4841 14.4493 20.0922 11.9635 19.9304 9.54853C19.7687 7.13373 18.8356 4.76459 17.1596 3.11196L16.8086 3.46799C18.3822 5.01969 19.2765 7.26584 19.4316 9.58194C19.5866 11.8979 19.0009 14.2586 17.6473 16.0359L18.0451 16.3388ZM16.8553 15.4856L10.2031 24.9564L10.6123 25.2437L17.2644 15.773L16.8553 15.4856ZM10.6122 24.9563L3.94548 15.4712L3.53642 15.7587L10.2032 25.2438L10.6122 24.9563ZM3.93993 15.4636C2.72234 13.8627 2.19346 11.736 2.33198 9.64901C2.4705 7.56187 3.27476 5.53975 4.69066 4.1444L4.3397 3.78827C2.82117 5.28476 1.97814 7.43011 1.83307 9.6159C1.688 11.8018 2.23922 14.0535 3.54197 15.7663L3.93993 15.4636ZM4.69049 4.14457C6.21858 2.64155 8.24659 1.81264 10.4077 1.81264V1.31264C8.1162 1.31264 5.96204 2.19255 4.33987 3.7881L4.69049 4.14457ZM10.4077 1.81264C12.5663 1.81264 14.5943 2.64152 16.1225 4.14457L16.4731 3.7881C14.8509 2.19258 12.6968 1.31264 10.4077 1.31264V1.81264ZM16.1223 4.14438C17.5379 5.53974 18.3426 7.56184 18.4799 9.65065C18.6172 11.7393 18.0856 13.8696 16.861 15.4778L17.2588 15.7807C18.5684 14.0609 19.1227 11.8058 18.9788 9.61785C18.835 7.43014 17.9915 5.28477 16.4733 3.78829L16.1223 4.14438Z"
     fill="#FF2474"
     id="path6"
     style="fill:#ff7f05;fill-opacity:1" />
  <path
     style="fill:#ff7f05;fill-opacity:1;stroke-width:0.01483051"
     d="M 9.7896827,1.7831448 C 9.4384571,1.7765345 9.0869452,1.8049865 8.7445941,1.886077 6.7934656,2.2769647 4.9914044,3.4067328 3.8227756,5.0215912 2.7514637,6.5365347 2.2236452,8.4007946 2.2219921,10.248294 c -0.012739,1.443048 0.2961695,2.897778 0.9597143,4.183392 0.3431621,0.671562 0.8179729,1.261746 1.2401005,1.883318 1.388512,1.976377 2.7787398,3.951552 4.1682846,5.927204 0.089326,0.08236 0.2242683,0.0258 0.3339472,0.04241 1.0734837,-2.27e-4 2.1469673,-4.73e-4 3.2204503,-7.27e-4 0.118769,-0.02567 0.150073,-0.168624 0.226729,-0.248792 1.617848,-2.305224 3.239947,-4.607535 4.8558,-6.914117 0.787938,-1.200111 1.215931,-2.615579 1.334924,-4.040347 C 18.707907,9.2223662 18.333899,7.308655 17.412391,5.6813091 16.617896,4.2739289 15.344847,3.1617597 13.885647,2.4819262 13.148517,2.1338869 12.354755,1.917431 11.551733,1.7902275 c -0.587349,-0.00223 -1.174697,-0.00708 -1.7620503,-0.00708 z m 0.7375283,4.4108018 c 0.505619,-0.010198 1.004921,0.12018 1.467418,0.3217166 0.737293,0.3472317 1.359422,0.9474243 1.71376,1.6886064 0.288005,0.5944167 0.383065,1.2898298 0.30096,1.9510164 -0.13444,1.037308 -0.781237,2.001042 -1.68924,2.531063 -0.446237,0.258358 -0.946854,0.434266 -1.461442,0.48205 -0.413248,0.02458 -0.825035,0.02557 -1.2234007,-0.08522 C 8.9409429,12.909587 8.2962834,12.532373 7.8247142,11.988906 7.3469851,11.463469 7.0456787,10.783115 6.9642367,10.082226 6.9484444,9.7772249 6.931793,9.4565669 6.9818095,9.1550737 7.0881794,8.5003622 7.3800709,7.8757077 7.8197451,7.3846452 8.493787,6.6209024 9.5090883,6.1712289 10.527211,6.1939466 Z"
     id="path823"
     inkscape:connector-curvature="0" />
  <path
     style="fill:#ff7f05;fill-opacity:1;stroke-width:0.02966102"
     d="m 8.6922353,22.231059 c -0.080866,0.168569 0.1439081,0.296598 0.2077276,0.441699 0.4800046,0.677094 0.9487283,1.36256 1.4385171,2.032505 0.187804,0.10104 0.250032,-0.20164 0.360185,-0.301297 0.477363,-0.692177 0.98188,-1.372334 1.441756,-2.072383 0.01456,-0.210359 -0.283191,-0.102582 -0.414825,-0.128563 -0.996406,0.0075 -1.9985913,-0.01485 -2.9914052,0.0111 l -0.027505,0.0111 z"
     id="path825"
     inkscape:connector-curvature="0" />
</svg>
