<?xml version="1.0" encoding="UTF-8" standalone="no"?>
<svg
   xmlns:dc="http://purl.org/dc/elements/1.1/"
   xmlns:cc="http://creativecommons.org/ns#"
   xmlns:rdf="http://www.w3.org/1999/02/22-rdf-syntax-ns#"
   xmlns:svg="http://www.w3.org/2000/svg"
   xmlns="http://www.w3.org/2000/svg"
   xmlns:sodipodi="http://sodipodi.sourceforge.net/DTD/sodipodi-0.dtd"
   xmlns:inkscape="http://www.inkscape.org/namespaces/inkscape"
   viewBox="0 0 90 7"
   version="1.1"
   id="svg8"
   sodipodi:docname="dash1.svg"
   inkscape:version="0.92.5 (2060ec1f9f, 2020-04-08)">
  <metadata
     id="metadata14">
    <rdf:RDF>
      <cc:Work
         rdf:about="">
        <dc:format>image/svg+xml</dc:format>
        <dc:type
           rdf:resource="http://purl.org/dc/dcmitype/StillImage" />
      </cc:Work>
    </rdf:RDF>
  </metadata>
  <defs
     id="defs12" />
  <sodipodi:namedview
     pagecolor="#ffffff"
     bordercolor="#666666"
     borderopacity="1"
     objecttolerance="10"
     gridtolerance="10"
     guidetolerance="10"
     inkscape:pageopacity="0"
     inkscape:pageshadow="2"
     inkscape:window-width="776"
     inkscape:window-height="480"
     id="namedview10"
     showgrid="false"
     inkscape:zoom="12.445079"
     inkscape:cx="36.525786"
     inkscape:cy="-1.8146424"
     inkscape:window-x="0"
     inkscape:window-y="0"
     inkscape:window-maximized="0"
     inkscape:current-layer="svg8" />
  <g
     id="g6"
     style="fill:#21b6ff;fill-opacity:1">
    <g
       id="g4"
       style="fill:#21b6ff;fill-opacity:1">
      <path
         d="M81,7c-2.5,0-3.8-1.7-4.9-3.2S74,1,72,1s-3,1.4-4.1,2.8S65.5,7,63,7s-3.8-1.7-4.9-3.2S56,1,54,1s-3,1.4-4.1,2.8S47.5,7,45,7s-3.8-1.7-4.9-3.2S38,1,36,1s-3,1.4-4.1,2.8S29.5,7,27,7s-3.8-1.7-4.9-3.2S20,1,18,1s-3,1.4-4.1,2.8S11.5,7,9,7,5.2,5.3,4.1,3.8,2,1,0,1V0C2.5,0,3.8,1.7,4.9,3.2S7,6,9,6s3-1.4,4.1-2.8S15.5,0,18,0s3.8,1.7,4.9,3.2S25,6,27,6s3-1.4,4.1-2.8S33.5,0,36,0s3.8,1.7,4.9,3.2S43,6,45,6s3-1.4,4.1-2.8S51.5,0,54,0s3.8,1.7,4.9,3.2S61,6,63,6s3-1.4,4.1-2.8S69.5,0,72,0s3.8,1.7,4.9,3.2S79,6,81,6s3-1.4,4.1-2.8S87.5,0,90,0V1c-2,0-3,1.4-4.1,2.8S83.5,7,81,7Z"
         id="path2"
         style="fill:#21b6ff;fill-opacity:1" />
    </g>
  </g>
</svg>
