<?xml version="1.0" encoding="UTF-8" standalone="no"?>
<svg
   xmlns:dc="http://purl.org/dc/elements/1.1/"
   xmlns:cc="http://creativecommons.org/ns#"
   xmlns:rdf="http://www.w3.org/1999/02/22-rdf-syntax-ns#"
   xmlns:svg="http://www.w3.org/2000/svg"
   xmlns="http://www.w3.org/2000/svg"
   xmlns:sodipodi="http://sodipodi.sourceforge.net/DTD/sodipodi-0.dtd"
   xmlns:inkscape="http://www.inkscape.org/namespaces/inkscape"
   width="27"
   height="21"
   viewBox="0 0 27 21"
   fill="none"
   version="1.1"
   id="svg13"
   sodipodi:docname="ico-email.svg"
   inkscape:version="0.92.5 (2060ec1f9f, 2020-04-08)">
  <metadata
     id="metadata17">
    <rdf:RDF>
      <cc:Work
         rdf:about="">
        <dc:format>image/svg+xml</dc:format>
        <dc:type
           rdf:resource="http://purl.org/dc/dcmitype/StillImage" />
      </cc:Work>
    </rdf:RDF>
  </metadata>
  <sodipodi:namedview
     pagecolor="#ffffff"
     bordercolor="#666666"
     borderopacity="1"
     objecttolerance="10"
     gridtolerance="10"
     guidetolerance="10"
     inkscape:pageopacity="0"
     inkscape:pageshadow="2"
     inkscape:window-width="1920"
     inkscape:window-height="1024"
     id="namedview15"
     showgrid="false"
     inkscape:zoom="15.893067"
     inkscape:cx="8.7844437"
     inkscape:cy="5.4273982"
     inkscape:window-x="0"
     inkscape:window-y="0"
     inkscape:window-maximized="1"
     inkscape:current-layer="g6" />
  <g
     clip-path="url(#clip0)"
     id="g6"
     style="fill:#ffffff">
    <path
       d="M3.81985 20.5526C2.17427 20.5526 0.835449 19.1934 0.835449 17.5232V3.70366C0.835449 2.03303 2.17427 0.673828 3.81985 0.673828H23.7369C24.5324 0.673828 25.2811 0.989618 25.8449 1.56396C26.4092 2.13878 26.7184 2.89988 26.716 3.70803V17.5232C26.716 19.1934 25.3772 20.5526 23.7316 20.5526H3.81985ZM3.81985 1.68911C2.7228 1.68911 1.83025 2.59524 1.83025 3.709V17.5232C1.83025 18.637 2.7228 19.5431 3.81985 19.5431H23.7369C24.8339 19.5431 25.7265 18.637 25.7265 17.5232V17.2807H25.7207V3.709C25.7207 2.59524 24.8282 1.68911 23.7311 1.68911H3.81985Z"
       fill="#FF2474"
       stroke="#FF2474"
       stroke-width="0.5"
       stroke-miterlimit="10"
       id="path2"
       style="fill:#ffffff" />
    <path
       d="M23.1861 17.729C23.0566 17.729 22.9357 17.68 22.8449 17.5917L16.1283 11.1134L14.1263 12.9349C14.0355 13.0193 13.9156 13.0664 13.7947 13.0664C13.7073 13.0664 13.5787 13.0441 13.4621 12.9393L11.5113 11.1702L4.75837 17.5835C4.66663 17.6698 4.54575 17.7174 4.41961 17.7174C4.28486 17.7174 4.1506 17.6577 4.05169 17.5534C3.86774 17.3526 3.87777 17.031 4.07654 16.8403L10.762 10.4867L4.04405 4.39113C3.94419 4.29994 3.88446 4.17672 3.87681 4.04187C3.86917 3.90702 3.91408 3.7775 4.00343 3.67612C4.099 3.56746 4.23469 3.50488 4.3766 3.50488C4.49844 3.50488 4.61598 3.55097 4.7082 3.6344L11.765 10.0462C11.7908 10.0661 11.8113 10.0831 11.829 10.0986L11.8897 10.1622L13.7899 11.8852L22.8387 3.63974C22.9304 3.5563 23.0489 3.51022 23.1717 3.51022C23.3127 3.51022 23.4484 3.57134 23.5435 3.67757C23.725 3.88373 23.7083 4.20534 23.5052 4.39259L16.8675 10.4362L23.5291 16.8568C23.6247 16.9485 23.6791 17.0732 23.683 17.2085C23.6868 17.3448 23.6385 17.4738 23.5473 17.5718C23.4503 17.6742 23.3246 17.729 23.1861 17.729Z"
       fill="#FF2474"
       stroke="#FF2474"
       stroke-width="0.5"
       stroke-miterlimit="10"
       id="path4"
       style="fill:#ffffff;stroke:#ffffff;stroke-opacity:0.07653061" />
  </g>
  <defs
     id="defs11">
    <clipPath
       id="clip0">
      <rect
         width="26"
         height="20"
         fill="white"
         transform="translate(0.775879 0.613281)"
         id="rect8" />
    </clipPath>
  </defs>
  <path
     style="fill:#ff7f05;fill-opacity:1;stroke-width:0.04449153"
     d="M 3.4240239,19.228173 C 2.9679667,19.11852 2.4665915,18.701248 2.2592514,18.258786 L 2.1389894,18.002148 V 10.616554 3.2309611 L 2.2582292,2.9765557 C 2.4247327,2.6213102 2.7371626,2.3030847 3.0899486,2.1294079 L 3.3828782,1.9851984 H 13.77352 24.164163 l 0.292932,0.1442095 c 0.352789,0.1736765 0.665218,0.4918996 0.831722,0.8471478 l 0.11924,0.2544054 0.02225,7.1853809 c 0.01224,3.95196 0.0077,7.285096 -0.01006,7.406969 -0.07671,0.52612 -0.491148,1.065201 -1.003541,1.305359 l -0.254405,0.11924 -10.299789,0.0068 C 8.1976289,19.25841 3.5003118,19.24651 3.4240299,19.22817 Z m 1.2695618,-1.298152 c 0.091732,-0.03198 1.3424681,-1.189007 3.4848894,-3.223797 l 3.3418029,-3.173917 0.448127,0.411951 c 1.279212,1.175946 1.435746,1.305594 1.637747,1.356459 0.20058,0.05051 0.365513,0.02685 0.567878,-0.08145 0.08895,-0.04761 1.253517,-1.08349 1.762666,-1.567896 l 0.1833,-0.174393 3.281676,3.166637 c 1.804922,1.74165 3.344153,3.204734 3.420514,3.251297 0.166324,0.101421 0.512982,0.112652 0.686068,0.02223 0.331558,-0.173215 0.509545,-0.554637 0.411508,-0.881855 -0.03102,-0.103546 -0.08925,-0.229287 -0.129394,-0.279425 -0.04014,-0.05014 -1.514514,-1.480106 -3.276379,-3.177706 -1.761864,-1.6976 -3.209539,-3.101907 -3.217055,-3.120683 -0.0075,-0.01878 1.440584,-1.3592061 3.218002,-2.9787341 C 22.292353,5.8592057 23.785001,4.4711662 23.831931,4.3942017 23.9365,4.2227115 23.946347,3.838295 23.850901,3.6537211 23.671257,3.3063279 23.152635,3.1444888 22.829674,3.3350407 22.743375,3.3859585 20.681875,5.2419021 18.248563,7.4593596 15.815251,9.6768172 13.810252,11.492472 13.793011,11.494147 13.775769,11.49582 11.759501,9.6773338 9.3124137,7.4530605 6.8653269,5.2287871 4.7924454,3.3716893 4.7060103,3.3261764 4.5899329,3.2650551 4.4863622,3.248608 4.309768,3.2632525 4.0443282,3.2852649 3.8852024,3.3800026 3.7295615,3.6086866 3.599102,3.8003713 3.5912213,4.1910202 3.71376,4.3919721 c 0.046184,0.075738 1.5583028,1.4754404 3.3602628,3.1104491 1.8019602,1.6350093 3.2706922,2.9855128 3.2638492,3.0011198 -0.0068,0.01561 -1.4639779,1.406949 -3.2380775,3.091872 -1.7740996,1.684923 -3.2705806,3.135481 -3.3255136,3.223463 -0.1443985,0.231271 -0.1389562,0.594125 0.012249,0.816643 0.2004363,0.294968 0.5656076,0.413532 0.9070558,0.294502 z"
     id="path824"
     inkscape:connector-curvature="0" />
  <path
     style="fill:#ff7f05;fill-opacity:1;stroke-width:0.04449153"
     d="M 3.1492509,19.093136 C 2.8130591,18.934091 2.4385029,18.574513 2.2769644,18.255732 L 2.1612352,18.027352 V 10.613138 3.1989252 L 2.2973548,2.9435388 C 2.4622624,2.6341403 2.7172541,2.3777242 3.0706941,2.1658793 L 3.3350259,2.0074442 H 13.773523 24.212021 l 0.264332,0.1584351 c 0.351698,0.210801 0.608451,0.4681474 0.769651,0.7714316 l 0.132433,0.2491587 0.02955,6.9851694 c 0.01753,4.144148 0.01295,7.167257 -0.01127,7.432865 -0.02918,0.320029 -0.07144,0.51034 -0.148213,0.667373 -0.139859,0.286085 -0.541229,0.690398 -0.83129,0.837383 l -0.229713,0.116405 -10.379128,-3.6e-5 -10.3791273,-3.5e-5 z m 1.6198613,-1.210741 c 0.3522914,-0.26763 1.3177264,-1.166372 4.5922738,-4.275036 2.145818,-2.037114 2.150566,-2.041256 2.246771,-1.959973 0.05302,0.0448 0.326675,0.292796 0.608112,0.551099 1.021163,0.937225 1.312357,1.154777 1.544702,1.15405 0.303401,-9.48e-4 0.630586,-0.245917 1.92211,-1.439107 0.230501,-0.21295 0.43424,-0.38164 0.452754,-0.374867 0.01851,0.0068 1.011172,0.953991 2.205908,2.104928 2.486232,2.395089 3.989811,3.833939 4.300618,4.115479 0.199056,0.180311 0.236759,0.196338 0.501535,0.213198 0.249904,0.01591 0.308109,0.0038 0.45787,-0.09531 0.197348,-0.130599 0.360792,-0.429085 0.35934,-0.656234 -0.0016,-0.254458 -0.145894,-0.493128 -0.495806,-0.820248 -0.387352,-0.362121 -4.019022,-3.875275 -5.283603,-5.111177 l -0.864071,-0.844476 0.24119,-0.222544 C 17.691471,10.099778 18.761023,9.1181701 19.9356,8.040826 23.014175,5.2170964 23.860507,4.4181345 23.890139,4.3076238 23.941573,4.1158077 23.917635,3.7341708 23.84663,3.61397 23.722445,3.4037407 23.492002,3.2809004 23.185153,3.2613617 22.866418,3.2410662 22.990786,3.1571254 21.915473,4.1183122 21.436845,4.5461412 15.731105,9.7152855 13.973537,11.313349 l -0.179156,0.162897 -0.39973,-0.358905 C 13.1748,10.919943 11.663513,9.5533964 10.036235,8.0805708 6.8309927,5.1795513 5.4796233,3.9650229 4.9741818,3.5311057 4.661697,3.2628401 4.6419563,3.2532069 4.4047054,3.2532069 c -0.2776133,0 -0.4274434,0.063882 -0.6166872,0.2629318 -0.1073254,0.1128867 -0.1340571,0.1847483 -0.1498277,0.4027744 -0.010557,0.1459551 -0.00734,0.3126158 0.00715,0.3703571 0.014853,0.059179 0.3908124,0.444159 0.8616921,0.8823666 0.6972709,0.6488908 5.055637,4.6391293 5.6340904,5.1582092 l 0.176304,0.158207 -0.5966363,0.578969 c -0.3281499,0.318432 -1.4475362,1.38838 -2.4875256,2.37766 -1.0399894,0.989281 -2.2593369,2.160556 -2.709661,2.602834 l -0.8187712,0.804141 -0.020784,0.250627 c -0.026152,0.315364 0.00373,0.433933 0.1545186,0.613137 0.2300585,0.273409 0.6833652,0.354749 0.9305406,0.166974 z"
     id="path826"
     inkscape:connector-curvature="0" />
  <path
     style="fill:#ff7f05;fill-opacity:1;stroke-width:0.04449153"
     d="M 2.4268323,20.456558 C 1.7845112,20.134985 1.2802948,19.630672 0.95748791,18.986932 l -0.17549,-0.349961 V 10.620172 2.6033728 L 0.95521079,2.2497941 C 1.2666951,1.6139624 1.7795031,1.093185 2.4007935,0.78174599 l 0.3062955,-0.15353912 11.061289,4.3464e-4 11.061289,4.3463e-4 0.241007,0.11218783 c 0.683784,0.31829963 1.314212,0.96506453 1.607407,1.64906053 0.08522,0.1988175 0.08697,0.3636827 0.08697,8.2200505 v 8.017164 l -0.149754,0.310186 c -0.319824,0.662452 -0.841816,1.197551 -1.471944,1.508903 L 24.82303,20.604902 13.770205,20.60346 2.7173793,20.602018 Z M 24.375168,19.188523 c 0.360396,-0.145464 0.747839,-0.51511 0.931996,-0.889185 l 0.145385,-0.29532 V 10.616554 3.22909 L 25.307164,2.9337708 C 25.123007,2.5596951 24.735564,2.1900492 24.375168,2.0445851 L 24.117803,1.9407069 H 13.773523 3.4292437 L 3.1622945,2.0478668 C 2.7934371,2.1959353 2.3497264,2.639646 2.2016579,3.0085035 l -0.10716,0.2669491 -0.01165,7.2500414 c -0.012655,7.875261 -0.023745,7.481803 0.2226443,7.899323 0.1321604,0.223953 0.4267456,0.520774 0.642549,0.647426 0.4278625,0.251105 -0.2100854,0.237744 10.9144648,0.228594 l 10.255297,-0.0084 z"
     id="path828"
     inkscape:connector-curvature="0" />
  <path
     style="fill:#ff7f05;fill-opacity:1;stroke-width:0.04449153"
     d="m 3.3056754,1.9191563 c -0.5638167,0.2562149 -1.0735288,0.728316 -1.2444592,1.3310961 0,4.9256984 0,9.8513966 0,14.7770956 0.2356094,0.627344 0.8011042,1.160961 1.4570105,1.298249 6.8897563,7.5e-5 13.7795123,1.03e-4 20.6692683,8.7e-5 0.537167,-0.216044 1.042339,-0.645871 1.225863,-1.209092 0.176687,-0.717029 0.067,-1.466587 0.104569,-2.197117 0.0073,-4.241151 -0.02322,-8.4822477 -0.03679,-12.7233598 -0.224872,-0.5913237 -0.727012,-1.1026177 -1.33127,-1.2886901 -6.932394,0 -13.864787,0 -20.797181,0 L 3.309518,1.9181971 Z M 23.137164,3.3520962 c 0.334541,0.00634 0.726652,0.2463178 0.673543,0.6267049 0.116,0.3068962 -0.19395,0.4492843 -0.365296,0.6452033 -2.02706,1.9585024 -4.140495,3.8288474 -6.201635,5.7535816 -0.04814,0.261397 0.341043,0.403257 0.4771,0.60991 1.984701,1.945996 4.015872,3.849183 5.973997,5.817986 0.268519,0.273634 0.17007,0.705747 -0.105581,0.933366 -0.168931,0.178752 -0.484765,0.171381 -0.698221,0.07847 -1.16858,-1.018714 -2.253299,-2.130067 -3.381587,-3.19309 -1.103719,-1.056885 -2.197139,-2.125102 -3.31517,-3.166764 -0.213829,-0.05277 -0.349842,0.224792 -0.516154,0.321097 -0.573101,0.482422 -1.07616,1.075235 -1.743355,1.431017 -0.416649,0.123903 -0.716768,-0.307073 -1.014729,-0.521183 -0.471858,-0.379809 -0.867697,-0.86646 -1.388943,-1.178359 -0.226733,0.01488 -0.350461,0.291731 -0.533419,0.408265 -2.0771496,1.933163 -4.09393,3.931951 -6.2129669,5.818882 -0.3943553,0.376927 -1.1067329,-0.05485 -1.0114422,-0.577579 -0.00238,-0.35765 0.3864865,-0.531574 0.5747724,-0.787268 1.9861213,-1.952914 4.0168137,-3.862917 6.0283617,-5.787758 0.07764,-0.218595 -0.250492,-0.325134 -0.351581,-0.48244 C 7.9360777,8.1428108 5.7753802,6.2606256 3.729127,4.2567862 3.6848533,3.9261565 3.7715096,3.4936881 4.1443233,3.3951105 c 0.2291961,-0.082135 0.4828789,-0.048946 0.6474733,0.139036 2.2780569,1.9555289 4.4701352,4.0091811 6.7069954,6.0113807 0.758028,0.6695118 1.493224,1.3794908 2.26828,2.0206248 0.245838,-0.06676 0.419737,-0.348434 0.63466,-0.502125 2.791139,-2.514718 5.550863,-5.0644104 8.367161,-7.5510834 0.102031,-0.094741 0.221025,-0.1764299 0.368271,-0.1608474 z"
     id="path830"
     inkscape:connector-curvature="0" />
</svg>
