<svg version="1.2" baseProfile="tiny-ps" xmlns="http://www.w3.org/2000/svg" viewBox="0 0 512 513" width="512" height="513">
	<title>instagram oclored-svg</title>
	<defs>
		<radialGradient id="grd1" gradientUnits="userSpaceOnUse"  cx="104.957" cy="447.447" r="564.646">
			<stop offset="0" stop-color="#fae100"  />
			<stop offset="0.054" stop-color="#fadc04"  />
			<stop offset="0.117" stop-color="#fbce0e"  />
			<stop offset="0.183" stop-color="#fcb720"  />
			<stop offset="0.251" stop-color="#fe9838"  />
			<stop offset="0.305" stop-color="#ff7950"  />
			<stop offset="0.492" stop-color="#ff1c74"  />
			<stop offset="1" stop-color="#6c1cd1"  />
		</radialGradient>
		<linearGradient id="grd2" gradientUnits="userSpaceOnUse"  x1="196.373" y1="222.46" x2="-671.016" y2="-265.446">
			<stop offset="0" stop-color="#a1b5d8" stop-opacity="0" />
			<stop offset="0.309" stop-color="#90a2bd" stop-opacity="0.31" />
			<stop offset="0.755" stop-color="#7c8b9c" stop-opacity="0.76" />
			<stop offset="1" stop-color="#748290"  />
		</linearGradient>
		<linearGradient id="grd3" gradientUnits="userSpaceOnUse"  x1="256" y1="451.966" x2="256" y2="531.774">
			<stop offset="0" stop-color="#fae100" stop-opacity="0" />
			<stop offset="0.307" stop-color="#fca800" stop-opacity="0.31" />
			<stop offset="0.627" stop-color="#fe7300" stop-opacity="0.63" />
			<stop offset="0.868" stop-color="#ff5200" stop-opacity="0.87" />
			<stop offset="1" stop-color="#ff4500"  />
		</linearGradient>
		<linearGradient id="grd4" gradientUnits="userSpaceOnUse"  x1="226.872" y1="226.148" x2="100.161" y2="99.436">
			<stop offset="0" stop-color="#833ab4" stop-opacity="0" />
			<stop offset="1" stop-color="#833ab4"  />
		</linearGradient>
		<linearGradient id="grd5" gradientUnits="userSpaceOnUse"  x1="350.9" y1="468.287" x2="287.656" y2="170.138">
			<stop offset="0" stop-color="#833ab4" stop-opacity="0" />
			<stop offset="1" stop-color="#833ab4"  />
		</linearGradient>
		<linearGradient id="grd6" gradientUnits="userSpaceOnUse"  x1="374.965" y1="374.965" x2="120.941" y2="120.941">
			<stop offset="0" stop-color="#833ab4" stop-opacity="0" />
			<stop offset="1" stop-color="#833ab4"  />
		</linearGradient>
		<linearGradient id="grd7" gradientUnits="userSpaceOnUse"  x1="393.807" y1="221.263" x2="309.806" y2="137.262">
			<stop offset="0" stop-color="#833ab4" stop-opacity="0" />
			<stop offset="1" stop-color="#833ab4"  />
		</linearGradient>
		<linearGradient id="grd8" gradientUnits="userSpaceOnUse"  x1="357.658" y1="155.05" x2="150.543" y2="362.165">
			<stop offset="0" stop-color="#833ab4"  />
			<stop offset="0.092" stop-color="#9c3495"  />
			<stop offset="0.293" stop-color="#dc2546"  />
			<stop offset="0.392" stop-color="#fd1d1d"  />
			<stop offset="0.559" stop-color="#fc6831"  />
			<stop offset="0.689" stop-color="#fc9b40"  />
			<stop offset="0.752" stop-color="#fcaf45"  />
			<stop offset="0.781" stop-color="#fdb750"  />
			<stop offset="0.865" stop-color="#fecb6a"  />
			<stop offset="0.941" stop-color="#ffd87a"  />
			<stop offset="1" stop-color="#ffdc80"  />
		</linearGradient>
	</defs>
	<style>
		tspan { white-space:pre }
		.shp0 { fill: url(#grd1) } 
		.shp1 { fill: url(#grd2) } 
		.shp2 { fill: url(#grd3) } 
		.shp3 { fill: url(#grd4) } 
		.shp4 { fill: url(#grd5) } 
		.shp5 { fill: url(#grd6) } 
		.shp6 { fill: url(#grd7) } 
		.shp7 { fill: url(#grd8) } 
		.shp8 { fill: #ffffff } 
	</style>
	<path id="Layer" class="shp0" d="M503.23 91.58C498.57 47.91 464.09 13.42 420.42 8.77C310.91 -2.92 201.09 -2.92 91.58 8.77C47.91 13.43 13.43 47.91 8.77 91.58C-2.92 201.08 -2.92 310.91 8.77 420.42C13.43 464.09 47.91 498.57 91.58 503.23C201.08 514.92 310.91 514.92 420.42 503.23C464.09 498.57 498.57 464.09 503.23 420.42C514.92 310.91 514.92 201.09 503.23 91.58L503.23 91.58Z" />
	<path id="Layer" class="shp1" d="M475.39 110.1C471.25 71.35 440.65 40.75 401.9 36.61C304.73 26.24 207.27 26.24 110.1 36.61C71.35 40.75 40.75 71.35 36.61 110.1C26.24 207.27 26.24 304.73 36.61 401.9C40.75 440.65 71.35 471.25 110.1 475.39C207.27 485.76 304.73 485.76 401.9 475.39C440.65 471.25 471.25 440.65 475.39 401.9C485.76 304.73 485.76 207.27 475.39 110.1L475.39 110.1Z" />
	<path id="Layer" class="shp2" d="M7.67 409.8C8.02 413.34 8.39 416.88 8.77 420.42C13.43 464.09 47.91 498.57 91.58 503.23C201.09 514.92 310.92 514.92 420.42 503.23C464.09 498.57 498.57 464.09 503.23 420.42C503.61 416.88 503.98 413.34 504.33 409.8L7.67 409.8Z" />
	<path id="Layer" class="shp3" d="M503.23 420.42C509.52 361.58 512.41 302.64 511.95 243.72L394.91 126.69C380.29 110 358.94 99.58 333.84 98.68C282.24 96.82 230.47 96.91 178.86 98.68C135.99 100.16 106.01 128.97 98.32 171.32C96.97 178.8 96.16 186.37 95.09 193.9L95.09 318.05C95.68 322.07 96.55 326.08 96.82 330.13C98.54 355.88 109.12 377.95 126.07 392.87L245.16 511.96C303.61 512.37 362.06 509.46 420.42 503.23C464.09 498.57 498.57 464.09 503.23 420.42L503.23 420.42Z" />
	<path id="Layer" class="shp4" d="M503.23 420.42C498.58 464.08 464.08 498.58 420.42 503.23C362.07 509.46 303.61 512.37 245.17 511.96L126.25 393.05C140.04 405.11 158.01 412.46 178.86 413.25C230.46 415.18 282.24 415.13 333.84 413.27C380.52 411.59 414.29 377.04 415.75 330.37C417.3 280.82 417.3 231.13 415.75 181.58C415.08 160.05 407.52 141.1 394.99 126.77L511.95 243.72C512.41 302.64 509.51 361.58 503.23 420.42Z" />
	<path id="Layer" class="shp5" d="M316.41 200.56C301.42 184.23 279.91 173.99 256 173.99C210.71 173.99 173.99 210.71 173.99 256C173.99 279.91 184.23 301.42 200.56 316.41L390.3 506.15C400.34 505.28 410.38 504.3 420.42 503.23C464.09 498.57 498.57 464.09 503.23 420.42C504.3 410.38 505.28 400.34 506.15 390.3L316.41 200.56Z" />
	<path id="Layer" class="shp6" d="M511.01 311.15L358.3 158.45C354.74 153.78 349.13 150.74 342.8 150.74C332.02 150.74 323.29 159.48 323.29 170.25C323.29 176.59 326.32 182.2 331 185.76L508.28 363.05C509.48 345.75 510.39 328.45 511.01 311.15L511.01 311.15Z" />
	<path id="Layer" fill-rule="evenodd" class="shp7" d="M98.32 171.32C106.01 128.97 135.99 100.16 178.86 98.68C230.47 96.91 282.24 96.82 333.84 98.68C380.5 100.36 414.29 134.9 415.75 181.57C417.3 231.13 417.3 280.81 415.75 330.37C414.29 377.04 380.51 411.59 333.85 413.27C282.24 415.13 230.46 415.18 178.86 413.24C132.2 411.49 99.94 376.86 96.82 330.12C96.55 326.08 95.68 322.07 95.09 318.05C95.09 276.66 95.09 235.28 95.09 193.9C96.16 186.37 96.97 178.8 98.32 171.32ZM326.89 385.45C363.87 384.07 386.61 362 387.48 325.06C388.55 279.02 388.55 232.93 387.48 186.89C386.61 149.95 363.85 127.36 326.89 126.58C279.97 125.59 233 125.59 186.08 126.58C149.4 127.35 126.59 149.48 125.59 186.01C124.32 232.62 124.32 279.32 125.59 325.94C126.59 362.47 149.4 384.09 186.09 385.45C209.37 386.31 232.72 385.61 256.04 385.61C279.66 385.61 303.3 386.32 326.89 385.45Z" />
	<g id="Layer">
		<path id="Layer" fill-rule="evenodd" class="shp8" d="M98.32 171.32C106.01 128.97 135.99 100.16 178.86 98.68C230.47 96.91 282.24 96.82 333.84 98.68C380.5 100.36 414.29 134.9 415.75 181.57C417.3 231.13 417.3 280.81 415.75 330.37C414.29 377.04 380.51 411.59 333.85 413.27C282.24 415.13 230.46 415.18 178.86 413.24C132.2 411.49 99.94 376.86 96.82 330.12C96.55 326.08 95.68 322.07 95.09 318.05C95.09 276.66 95.09 235.28 95.09 193.9C96.16 186.37 96.97 178.8 98.32 171.32ZM326.89 385.45C363.87 384.07 386.61 362 387.48 325.06C388.55 279.02 388.55 232.93 387.48 186.89C386.61 149.95 363.85 127.36 326.89 126.58C279.97 125.59 233 125.59 186.08 126.58C149.4 127.35 126.59 149.48 125.59 186.01C124.32 232.62 124.32 279.32 125.59 325.94C126.59 362.47 149.4 384.09 186.09 385.45C209.37 386.31 232.72 385.61 256.04 385.61C279.66 385.61 303.3 386.32 326.89 385.45Z" />
		<path id="Layer" fill-rule="evenodd" class="shp8" d="M338.01 256C338.01 301.29 301.29 338.01 256 338.01C210.71 338.01 173.99 301.29 173.99 256C173.99 210.71 210.71 174 256 174C301.29 174 338.01 210.71 338.01 256ZM309.77 256C309.77 226.3 285.7 202.23 256 202.23C226.3 202.23 202.23 226.3 202.23 256C202.23 285.7 226.3 309.77 256 309.77C285.7 309.77 309.77 285.7 309.77 256Z" />
		<path id="Layer" class="shp8" d="M362.3 170.25C362.3 181.03 353.57 189.76 342.8 189.76C332.02 189.76 323.29 181.03 323.29 170.25C323.29 159.48 332.02 150.74 342.8 150.74C353.57 150.74 362.3 159.48 362.3 170.25Z" />
	</g>
</svg>