<?xml version="1.0" encoding="UTF-8" standalone="no"?>
<svg
   xmlns:dc="http://purl.org/dc/elements/1.1/"
   xmlns:cc="http://creativecommons.org/ns#"
   xmlns:rdf="http://www.w3.org/1999/02/22-rdf-syntax-ns#"
   xmlns:svg="http://www.w3.org/2000/svg"
   xmlns="http://www.w3.org/2000/svg"
   xmlns:sodipodi="http://sodipodi.sourceforge.net/DTD/sodipodi-0.dtd"
   xmlns:inkscape="http://www.inkscape.org/namespaces/inkscape"
   width="27"
   height="27"
   viewBox="0 0 27 27"
   fill="none"
   version="1.1"
   id="svg9"
   sodipodi:docname="tel.svg"
   inkscape:version="0.92.5 (2060ec1f9f, 2020-04-08)">
  <metadata
     id="metadata15">
    <rdf:RDF>
      <cc:Work
         rdf:about="">
        <dc:format>image/svg+xml</dc:format>
        <dc:type
           rdf:resource="http://purl.org/dc/dcmitype/StillImage" />
      </cc:Work>
    </rdf:RDF>
  </metadata>
  <defs
     id="defs13" />
  <sodipodi:namedview
     pagecolor="#ffffff"
     bordercolor="#666666"
     borderopacity="1"
     objecttolerance="10"
     gridtolerance="10"
     guidetolerance="10"
     inkscape:pageopacity="0"
     inkscape:pageshadow="2"
     inkscape:window-width="1920"
     inkscape:window-height="1024"
     id="namedview11"
     showgrid="false"
     inkscape:zoom="34.962962"
     inkscape:cx="11.801994"
     inkscape:cy="18.310125"
     inkscape:window-x="0"
     inkscape:window-y="0"
     inkscape:window-maximized="1"
     inkscape:current-layer="svg9" />
  <mask
     id="path-1-outside-1"
     maskUnits="userSpaceOnUse"
     x="0.120117"
     y="0.0683594"
     width="27"
     height="27"
     fill="black">
    <rect
       fill="white"
       x="0.120117"
       y="0.0683594"
       width="27"
       height="27"
       id="rect2" />
    <path
       d="M24.8704 19.7336C24.8063 19.5393 24.3959 19.2533 23.6399 18.876C23.4352 18.7576 23.1442 18.5954 22.7664 18.3907C22.3877 18.1851 22.0454 17.9962 21.7376 17.8231C21.4299 17.6515 21.1409 17.4833 20.8711 17.3215C20.8282 17.2895 20.6936 17.1953 20.4662 17.038C20.2403 16.8816 20.048 16.7662 19.8916 16.6908C19.7353 16.6148 19.5809 16.5773 19.43 16.5773C19.2145 16.5773 18.9447 16.7307 18.6207 17.038C18.2977 17.3457 18.0008 17.6806 17.731 18.0425C17.4612 18.4045 17.1752 18.7384 16.8733 19.0461C16.5705 19.3549 16.3219 19.5082 16.1281 19.5082C16.031 19.5082 15.9096 19.4811 15.7632 19.4274C15.6187 19.3731 15.5072 19.3272 15.4313 19.2898C15.3563 19.2518 15.2266 19.1763 15.0431 19.0629C14.8596 18.9495 14.7566 18.8873 14.7354 18.8765C13.2563 18.0564 11.9878 17.1169 10.9299 16.059C9.87204 15.0012 8.93252 13.7328 8.11235 12.2537C8.1015 12.2316 8.03936 12.1295 7.92592 11.946C7.81249 11.7625 7.73654 11.6324 7.69906 11.5569C7.66108 11.481 7.61571 11.3705 7.56096 11.225C7.5077 11.0795 7.48057 10.9577 7.48057 10.861C7.48057 10.6672 7.63494 10.4187 7.94269 10.1159C8.25044 9.81404 8.58531 9.52801 8.94633 9.25825C9.30833 8.98848 9.64222 8.6911 9.94996 8.36857C10.2587 8.04456 10.4116 7.7748 10.4116 7.5583C10.4116 7.40788 10.3736 7.25352 10.2982 7.09719C10.2222 6.94036 10.1073 6.74901 9.94996 6.52166C9.79313 6.2948 9.69893 6.15968 9.66589 6.11628C9.50511 5.84651 9.33693 5.5585 9.16432 5.25077C8.99121 4.94303 8.8033 4.59979 8.59715 4.22202C8.39248 3.84475 8.23022 3.5523 8.11186 3.34764C7.73358 2.5926 7.44802 2.18179 7.25321 2.11718C7.17825 2.08513 7.06482 2.06836 6.91341 2.06836C6.62243 2.06836 6.24169 2.12261 5.77217 2.23061C5.30266 2.33812 4.93277 2.45155 4.6625 2.5704C4.12246 2.79726 3.55085 3.45515 2.94571 4.54603C2.39581 5.55998 2.12012 6.56457 2.12012 7.55731C2.12012 7.84828 2.13837 8.13185 2.17634 8.40753C2.21432 8.68321 2.28188 8.99341 2.37904 9.33912C2.4762 9.68434 2.55462 9.94079 2.6138 10.108C2.67298 10.2747 2.78395 10.5745 2.94571 11.0065C3.10797 11.4385 3.20464 11.7024 3.23669 11.8005C3.61546 12.8584 4.06278 13.8028 4.58063 14.6343C5.43286 16.0151 6.59629 17.4438 8.07043 18.9169C9.54358 20.39 10.9714 21.5534 12.3533 22.4066C13.1843 22.9249 14.1292 23.3732 15.1871 23.751C15.2838 23.783 15.5491 23.8797 15.9812 24.0419C16.4122 24.2037 16.7121 24.3146 16.8788 24.3738C17.0469 24.434 17.3029 24.5119 17.6486 24.6101C17.9943 24.7067 18.3046 24.7738 18.5803 24.8118C18.855 24.8497 19.1381 24.869 19.4295 24.869C20.4233 24.869 21.4269 24.5933 22.4419 24.0429C23.5319 23.4383 24.1908 22.8657 24.4166 22.3262C24.536 22.0564 24.6489 21.6866 24.7574 21.2171C24.8654 20.7476 24.9197 20.3673 24.9197 20.0759C24.9202 19.924 24.9034 19.8101 24.8704 19.7336Z"
       id="path4" />
  </mask>
  <path
     d="M24.8704 19.7336L23.4459 20.2036L23.4669 20.2673L23.4935 20.3288L24.8704 19.7336ZM23.6399 18.876L22.889 20.1745L22.9289 20.1976L22.9701 20.2182L23.6399 18.876ZM22.7664 18.3907L22.0507 19.7089L22.0519 19.7096L22.7664 18.3907ZM21.7376 17.8231L22.473 16.5157L22.4682 16.513L21.7376 17.8231ZM20.8711 17.3215L19.9733 18.5232L20.0344 18.5688L20.0997 18.608L20.8711 17.3215ZM20.4662 17.038L19.6126 18.2714L19.6127 18.2715L20.4662 17.038ZM19.8916 16.6908L19.2362 18.04L19.2397 18.0417L19.8916 16.6908ZM18.6207 17.038L17.5886 15.9495L17.5861 15.9519L18.6207 17.038ZM16.8733 19.0461L17.9442 20.0965L17.9442 20.0965L16.8733 19.0461ZM15.7632 19.4274L15.236 20.8317L15.2464 20.8355L15.7632 19.4274ZM15.4313 19.2898L14.7534 20.6279L14.7604 20.6314L14.7675 20.6349L15.4313 19.2898ZM14.7354 18.8765L14.008 20.1883L14.0299 20.2005L14.0522 20.2119L14.7354 18.8765ZM8.11235 12.2537L6.76478 12.9126L6.78178 12.9473L6.80055 12.9812L8.11235 12.2537ZM7.69906 11.5569L9.04244 10.8896L9.04069 10.8861L7.69906 11.5569ZM7.56096 11.225L6.15234 11.7407L6.15706 11.7533L7.56096 11.225ZM7.94269 10.1159L6.8924 9.04493L6.89066 9.04665L7.94269 10.1159ZM8.94633 9.25825L8.05003 8.05548L8.04845 8.05665L8.94633 9.25825ZM9.94996 8.36857L11.0352 9.40407L11.0359 9.40332L9.94996 8.36857ZM10.2982 7.09719L11.649 6.44516L11.6482 6.44338L10.2982 7.09719ZM9.94996 6.52166L8.71611 7.37466L8.7165 7.37522L9.94996 6.52166ZM9.66589 6.11628L8.37738 6.88423L8.42093 6.95729L8.47245 7.02496L9.66589 6.11628ZM9.16432 5.25077L10.4726 4.51695L10.4717 4.51535L9.16432 5.25077ZM8.59715 4.22202L7.27867 4.9373L7.28045 4.94056L8.59715 4.22202ZM8.11186 3.34764L6.77075 4.01953L6.79088 4.0597L6.81337 4.0986L8.11186 3.34764ZM7.25321 2.11718L6.66345 3.49638L6.72132 3.52112L6.78105 3.54093L7.25321 2.11718ZM5.77217 2.23061L6.10698 3.69277L6.10844 3.69243L5.77217 2.23061ZM4.6625 2.5704L5.24344 3.95334L5.25493 3.94851L5.26633 3.9435L4.6625 2.5704ZM2.94571 4.54603L1.63402 3.8184L1.63055 3.82465L1.62715 3.83092L2.94571 4.54603ZM2.37904 9.33912L0.934985 9.74496L0.935136 9.7455L2.37904 9.33912ZM2.6138 10.108L1.19978 10.6085L1.20025 10.6098L2.6138 10.108ZM2.94571 11.0065L1.54096 11.5325L1.54149 11.5339L2.94571 11.0065ZM3.23669 11.8005L1.81083 12.2663L1.81738 12.2863L1.82449 12.3062L3.23669 11.8005ZM4.58063 14.6343L5.85711 13.8465L5.85388 13.8413L4.58063 14.6343ZM8.07043 18.9169L9.13106 17.8562L9.13071 17.8559L8.07043 18.9169ZM12.3533 22.4066L13.1471 21.1338L13.1413 21.1302L12.3533 22.4066ZM15.1871 23.751L14.6827 25.1636L14.6988 25.1693L14.715 25.1747L15.1871 23.751ZM15.9812 24.0419L15.4538 25.4462L15.4541 25.4463L15.9812 24.0419ZM16.8788 24.3738L17.384 22.9615L17.3806 22.9603L16.8788 24.3738ZM17.6486 24.6101L17.239 26.053L17.2447 26.0547L17.6486 24.6101ZM18.5803 24.8118L18.7857 23.3259L18.7849 23.3258L18.5803 24.8118ZM22.4419 24.0429L23.1569 25.3615L23.1633 25.3581L23.1696 25.3546L22.4419 24.0429ZM24.4166 22.3262L23.0449 21.7193L23.0388 21.733L23.033 21.7469L24.4166 22.3262ZM24.7574 21.2171L26.2189 21.5548L26.2193 21.5534L24.7574 21.2171ZM24.9197 20.0759L23.4197 20.071V20.0759H24.9197ZM26.2948 19.2636C26.1739 18.8972 25.9534 18.647 25.8246 18.5166C25.6783 18.3685 25.5178 18.2442 25.3723 18.1428C25.0805 17.9394 24.715 17.7361 24.3096 17.5338L22.9701 20.2182C23.3208 20.3931 23.5385 20.5215 23.6569 20.604C23.7165 20.6456 23.7178 20.6528 23.6902 20.6248C23.6748 20.6092 23.6393 20.5715 23.5975 20.5113C23.5569 20.4527 23.494 20.3493 23.4459 20.2036L26.2948 19.2636ZM24.3908 17.5775C24.1696 17.4496 23.8654 17.2801 23.4809 17.0718L22.0519 19.7096C22.4231 19.9107 22.7008 20.0657 22.889 20.1745L24.3908 17.5775ZM23.4822 17.0725C23.1087 16.8697 22.7731 16.6845 22.473 16.5157L21.0023 19.1305C21.3177 19.3079 21.6666 19.5004 22.0507 19.7089L23.4822 17.0725ZM22.4682 16.513C22.1756 16.3498 21.9003 16.1896 21.6425 16.0351L20.0997 18.608C20.3815 18.7769 20.6842 18.9531 21.0071 19.1331L22.4682 16.513ZM21.7689 16.1199C21.6982 16.0671 21.534 15.9527 21.3197 15.8045L19.6127 18.2715C19.7255 18.3495 19.8134 18.4106 19.8775 18.4555C19.9488 18.5054 19.9737 18.5235 19.9733 18.5232L21.7689 16.1199ZM21.3199 15.8046C21.0575 15.623 20.795 15.4612 20.5436 15.3399L19.2397 18.0417C19.301 18.0713 19.4232 18.1403 19.6126 18.2714L21.3199 15.8046ZM20.5471 15.3415C20.2134 15.1794 19.8361 15.0773 19.43 15.0773V18.0773C19.3257 18.0773 19.2572 18.0502 19.2362 18.04L20.5471 15.3415ZM19.43 15.0773C18.9726 15.0773 18.592 15.2364 18.3242 15.3887C18.0496 15.545 17.8037 15.7455 17.5886 15.9495L19.6528 18.1264C19.7043 18.0776 19.7443 18.0438 19.773 18.0215C19.8022 17.9989 19.8136 17.9929 19.8079 17.9962C19.8027 17.9991 19.7695 18.0176 19.7104 18.0363C19.6504 18.0553 19.5543 18.0773 19.43 18.0773V15.0773ZM17.5861 15.9519C17.2016 16.3181 16.8485 16.7165 16.5283 17.1462L18.9337 18.9389C19.153 18.6446 19.3937 18.3733 19.6553 18.124L17.5861 15.9519ZM16.5283 17.1462C16.2982 17.4549 16.056 17.7372 15.8024 17.9958L17.9442 20.0965C18.2943 19.7395 18.6243 19.3541 18.9337 18.9389L16.5283 17.1462ZM15.8025 17.9958C15.6998 18.1005 15.6562 18.1263 15.6701 18.1177C15.6799 18.1117 15.7211 18.087 15.7916 18.0625C15.863 18.0377 15.9786 18.0082 16.1281 18.0082V21.0082C16.6107 21.0082 16.999 20.8234 17.2496 20.6682C17.512 20.5057 17.7441 20.3005 17.9442 20.0965L15.8025 17.9958ZM16.1281 18.0082C16.2151 18.0082 16.2724 18.0199 16.2894 18.0236C16.308 18.0278 16.3062 18.0288 16.2799 18.0192L15.2464 20.8355C15.4672 20.9166 15.7784 21.0082 16.1281 21.0082V18.0082ZM16.2904 18.0231C16.2286 17.9999 16.1808 17.9811 16.145 17.9662C16.1074 17.9507 16.0932 17.9437 16.0951 17.9446L14.7675 20.6349C14.9126 20.7065 15.0809 20.7734 15.236 20.8317L16.2904 18.0231ZM16.1091 17.9516C16.1104 17.9523 16.0886 17.941 16.0341 17.9092C15.9834 17.8796 15.9165 17.8393 15.8319 17.7871L14.2543 20.3388C14.4389 20.4529 14.6162 20.5584 14.7534 20.6279L16.1091 17.9516ZM15.8319 17.7871C15.6864 17.6971 15.5097 17.5877 15.4186 17.5411L14.0522 20.2119C14.0358 20.2035 14.0235 20.1968 14.0183 20.1939C14.0122 20.1906 14.0078 20.1881 14.006 20.1871C14.0025 20.1851 14.0021 20.1848 14.0062 20.1872C14.0141 20.1919 14.0288 20.2007 14.0519 20.2146C14.0975 20.2422 14.1646 20.2833 14.2543 20.3388L15.8319 17.7871ZM15.4628 17.5647C14.0905 16.8038 12.9379 15.9456 11.9906 14.9983L9.86929 17.1197C11.0378 18.2881 12.4221 19.3089 14.008 20.1883L15.4628 17.5647ZM11.9906 14.9983C11.0433 14.0511 10.1851 12.8985 9.42415 11.5263L6.80055 12.9812C7.67995 14.567 8.70083 15.9513 9.86929 17.1197L11.9906 14.9983ZM9.45991 11.5949C9.40618 11.485 9.2803 11.2842 9.20174 11.1572L6.6501 12.7349C6.70644 12.826 6.74751 12.8928 6.77507 12.9382C6.78907 12.9613 6.79703 12.9747 6.80068 12.9809C6.80257 12.9841 6.80114 12.9817 6.79774 12.9757C6.79597 12.9725 6.79244 12.9662 6.78783 12.9576C6.78381 12.9501 6.77524 12.934 6.76478 12.9126L9.45991 11.5949ZM9.20174 11.1572C9.14914 11.0721 9.10899 11.0054 9.0798 10.9553C9.04786 10.9006 9.03905 10.8827 9.04244 10.8896L6.35568 12.2242C6.42802 12.3699 6.53865 12.5546 6.6501 12.7349L9.20174 11.1572ZM9.04069 10.8861C9.0431 10.8909 9.03717 10.8793 9.02186 10.8424C9.00733 10.8073 8.98861 10.7598 8.96486 10.6967L6.15706 11.7533C6.21458 11.9061 6.28255 12.078 6.35743 12.2277L9.04069 10.8861ZM8.96953 10.7093C8.96031 10.6841 8.96133 10.6824 8.96535 10.7006C8.96891 10.7167 8.98057 10.7737 8.98057 10.861H5.98057C5.98057 11.2093 6.07173 11.5204 6.1524 11.7407L8.96953 10.7093ZM8.98057 10.861C8.98057 11.0118 8.95072 11.128 8.92585 11.1993C8.90127 11.2698 8.87663 11.3108 8.87087 11.3201C8.86289 11.3329 8.88948 11.2886 8.99473 11.1851L6.89066 9.04665C6.68816 9.24589 6.48368 9.47728 6.32159 9.73857C6.16711 9.98757 5.98057 10.3766 5.98057 10.861H8.98057ZM8.99298 11.1868C9.25058 10.9342 9.53418 10.6915 9.8442 10.4598L8.04845 8.05665C7.63645 8.36452 7.2503 8.69393 6.8924 9.04493L8.99298 11.1868ZM9.84263 10.461C10.2742 10.1394 10.671 9.78576 11.0352 9.40407L8.86473 7.33307C8.61343 7.59644 8.34249 7.83753 8.05003 8.05548L9.84263 10.461ZM11.0359 9.40332C11.3734 9.04918 11.9116 8.40338 11.9116 7.5583H8.91159C8.91159 7.43548 8.93324 7.3401 8.95222 7.27988C8.9709 7.22058 8.98953 7.18709 8.99281 7.18132C8.9964 7.17502 8.99071 7.18601 8.96838 7.21472C8.94642 7.24295 8.91282 7.2826 8.86402 7.33382L11.0359 9.40332ZM11.9116 7.5583C11.9116 7.14971 11.8075 6.77352 11.649 6.44516L8.94728 7.74921C8.93971 7.73352 8.91159 7.66606 8.91159 7.5583H11.9116ZM11.6482 6.44338C11.5267 6.19247 11.3658 5.9316 11.1834 5.6681L8.7165 7.37522C8.84881 7.56642 8.91776 7.68825 8.94814 7.75099L11.6482 6.44338ZM11.1838 5.66866C11.0408 5.46184 10.9193 5.28635 10.8593 5.2076L8.47245 7.02496C8.46596 7.01644 8.46691 7.01736 8.48126 7.03747C8.49339 7.05446 8.51022 7.0783 8.53257 7.11024C8.57721 7.17403 8.63789 7.26151 8.71611 7.37466L11.1838 5.66866ZM10.9544 5.34832C10.7985 5.08672 10.6372 4.81043 10.4726 4.51695L7.85607 5.98459C8.03668 6.30658 8.21174 6.60631 8.37738 6.88423L10.9544 5.34832ZM10.4717 4.51535C10.3039 4.21711 10.1203 3.88176 9.91385 3.50348L7.28045 4.94056C7.48632 5.31781 7.67852 5.66896 7.85697 5.98618L10.4717 4.51535ZM9.91563 3.50674C9.7089 3.12567 9.53899 2.81912 9.41034 2.59667L6.81337 4.0986C6.92145 4.28548 7.07606 4.56382 7.27868 4.9373L9.91563 3.50674ZM9.45296 2.67574C9.25051 2.27166 9.04728 1.90691 8.84423 1.61566C8.74299 1.47044 8.61884 1.31004 8.47097 1.16383C8.34056 1.03491 8.09097 0.814675 7.72538 0.693433L6.78105 3.54093C6.63599 3.49283 6.53312 3.43011 6.47468 3.38952C6.41471 3.34785 6.37718 3.31244 6.36177 3.2972C6.33404 3.26979 6.34146 3.2714 6.38324 3.33133C6.46624 3.45039 6.59492 3.66857 6.77075 4.01953L9.45296 2.67574ZM7.84298 0.737988C7.48777 0.586098 7.1316 0.568359 6.91341 0.568359V3.56836C6.9371 3.56836 6.92892 3.56988 6.89714 3.56529C6.87044 3.56142 6.78192 3.54704 6.66345 3.49638L7.84298 0.737988ZM6.91341 0.568359C6.45947 0.568359 5.9534 0.649748 5.43591 0.768789L6.10844 3.69243C6.52997 3.59547 6.78538 3.56836 6.91341 3.56836V0.568359ZM5.43736 0.768454C4.92475 0.885834 4.45201 1.02433 4.05866 1.19731L5.26633 3.9435C5.41353 3.87877 5.68057 3.79041 6.10698 3.69277L5.43736 0.768454ZM4.08156 1.18747C3.5216 1.42269 3.0655 1.82542 2.69627 2.25034C2.31929 2.68417 1.96756 3.21711 1.63402 3.8184L4.25741 5.27366C4.529 4.78406 4.76565 4.44262 4.96077 4.21808C5.16364 3.98462 5.26336 3.94497 5.24344 3.95334L4.08156 1.18747ZM1.62715 3.83092C0.977756 5.02831 0.620117 6.27672 0.620117 7.55731H3.62012C3.62012 6.85241 3.81386 6.09165 4.26428 5.26114L1.62715 3.83092ZM0.620117 7.55731C0.620117 7.91091 0.642288 8.26316 0.690373 8.61223L3.66231 8.20284C3.63444 8.00054 3.62012 7.78565 3.62012 7.55731H0.620117ZM0.690373 8.61223C0.739975 8.97231 0.824397 9.35146 0.934985 9.74496L3.8231 8.93329C3.73937 8.63537 3.68866 8.39412 3.66231 8.20284L0.690373 8.61223ZM0.935136 9.7455C1.03438 10.0981 1.12356 10.3932 1.19978 10.6085L4.02781 9.60741C3.98567 9.48837 3.91802 9.27057 3.82295 8.93275L0.935136 9.7455ZM1.20025 10.6098C1.26444 10.7906 1.37994 11.1025 1.54096 11.5325L4.35046 10.4805C4.18796 10.0465 4.08152 9.75868 4.02735 9.6061L1.20025 10.6098ZM1.54149 11.5339C1.70881 11.9794 1.79139 12.2067 1.81083 12.2663L4.66255 11.3348C4.61789 11.198 4.50713 10.8976 4.34994 10.4791L1.54149 11.5339ZM1.82449 12.3062C2.23381 13.4493 2.72523 14.4925 3.30738 15.4272L5.85388 13.8413C5.40034 13.113 4.99711 12.2674 4.6489 11.2949L1.82449 12.3062ZM3.30416 15.4221C4.2318 16.9251 5.4752 18.4441 7.01014 19.978L9.13071 17.8559C7.71738 16.4436 6.63392 15.1051 5.8571 13.8465L3.30416 15.4221ZM7.00979 19.9776C8.54329 21.511 10.0612 22.7543 11.5653 23.6829L13.1413 21.1302C11.8815 20.3525 10.5439 19.269 9.13106 17.8562L7.00979 19.9776ZM11.5594 23.6793C12.4938 24.2621 13.538 24.7548 14.6827 25.1636L15.6916 22.3383C14.7204 21.9915 13.8748 21.5877 13.1471 21.1338L11.5594 23.6793ZM14.715 25.1747C14.7781 25.1956 15.0135 25.2808 15.4538 25.4462L16.5085 22.6377C16.0847 22.4785 15.7895 22.3704 15.6593 22.3272L14.715 25.1747ZM15.4541 25.4463C15.8839 25.6076 16.1958 25.7231 16.3769 25.7874L17.3806 22.9603C17.2283 22.9062 16.9405 22.7998 16.5082 22.6376L15.4541 25.4463ZM16.3735 25.7862C16.5928 25.8646 16.8907 25.9542 17.239 26.053L18.0582 23.1671C17.7151 23.0697 17.501 23.0033 17.384 22.9615L16.3735 25.7862ZM17.2447 26.0547C17.6387 26.1648 18.017 26.2483 18.3756 26.2977L18.7849 23.3258C18.5921 23.2992 18.35 23.2486 18.0525 23.1655L17.2447 26.0547ZM18.3749 26.2976C18.7201 26.3454 19.0719 26.369 19.4295 26.369V23.369C19.2042 23.369 18.9898 23.3541 18.7857 23.3259L18.3749 26.2976ZM19.4295 26.369C20.7113 26.369 21.9588 26.0112 23.1569 25.3615L21.7269 22.7243C20.8951 23.1753 20.1353 23.369 19.4295 23.369V26.369ZM23.1696 25.3546C23.7706 25.0212 24.3035 24.6693 24.7374 24.2922C25.1619 23.9232 25.5654 23.4664 25.8003 22.9055L23.033 21.7469C23.042 21.7255 23.0031 21.8248 22.7692 22.0281C22.5447 22.2233 22.2032 22.46 21.7143 22.7312L23.1696 25.3546ZM25.7884 22.9331C25.9632 22.5379 26.1014 22.0634 26.2189 21.5548L23.296 20.8793C23.1965 21.3098 23.1088 21.5749 23.0449 21.7193L25.7884 22.9331ZM26.2193 21.5534C26.3383 21.036 26.4197 20.5304 26.4197 20.0759H23.4197C23.4197 20.2043 23.3926 20.4591 23.2956 20.8808L26.2193 21.5534ZM26.4197 20.0807C26.4204 19.8587 26.4029 19.4986 26.2472 19.1384L23.4935 20.3288C23.4423 20.2103 23.4274 20.1208 23.4231 20.0915C23.4182 20.0578 23.4198 20.0481 23.4197 20.071L26.4197 20.0807Z"
     fill="#FF2474"
     mask="url(#path-1-outside-1)"
     id="path7"
     style="fill:#ff7f05;fill-opacity:1" />
  <path
     style="fill:#ff7f05;fill-opacity:1;stroke-width:0.02022445"
     d="M 6.5057202,3.4190212 C 6.0666206,3.5070158 5.6224777,3.5980311 5.206141,3.766076 4.8340458,3.9921622 4.5971998,4.376734 4.3606641,4.7307666 3.8190337,5.5878567 3.4145436,6.5749374 3.4382249,7.6041396 c -0.018104,0.8514931 0.281179,1.665046 0.5568662,2.4574934 0.4240804,1.12837 0.791236,2.286844 1.3889695,3.339983 1.1720713,2.088465 2.8199192,3.861063 4.5584125,5.488919 1.4526749,1.332249 3.0525879,2.549904 4.8837129,3.31167 0.816329,0.329934 1.646282,0.625702 2.474889,0.923175 0.686884,0.236897 1.400227,0.451279 2.13514,0.421005 1.071175,0.02229 2.08521,-0.436654 2.963995,-1.013036 0.317842,-0.222682 0.674922,-0.44697 0.846419,-0.809737 0.139411,-0.412002 0.255447,-0.836501 0.32058,-1.265931 0.0082,-0.206711 -0.237997,-0.243854 -0.374334,-0.336405 -0.982573,-0.540068 -1.985273,-1.077214 -2.947918,-1.649416 -0.220236,-0.126388 -0.412613,-0.299832 -0.640704,-0.410967 -0.209462,-0.04028 -0.313905,0.188498 -0.442766,0.308502 -0.397486,0.46284 -0.748448,0.957914 -1.169704,1.399684 -0.439397,0.492699 -0.988783,0.95809 -1.670182,1.034754 -0.545157,0.06272 -1.07769,-0.147509 -1.556849,-0.385439 C 14.235094,20.108569 13.686888,19.794301 13.15857,19.46847 11.360899,18.356105 9.7684474,16.941818 8.4978288,15.254276 7.9043339,14.47912 7.4041931,13.664744 6.9183253,12.818822 6.6041522,12.302743 6.2852769,11.762614 6.1941372,11.15602 6.1875135,10.84245 6.1549639,10.512698 6.2955754,10.220836 6.4368545,9.8516716 6.6787121,9.5339277 6.9601384,9.2602965 7.3998457,8.7799079 7.9232727,8.3969025 8.4268108,7.9899531 8.5954512,7.8340309 8.8050424,7.7051668 8.9197375,7.501714 8.9762453,7.3170834 8.7825035,7.1810005 8.7090794,7.0370257 8.0955907,6.1054356 7.5983191,5.1041488 7.0512966,4.1334383 6.9165445,3.9133362 6.8227731,3.6640011 6.6633975,3.4621333 6.626212,3.4279245 6.556269,3.4120383 6.5057202,3.4190212 Z"
     id="path869"
     inkscape:connector-curvature="0" />
  <path
     style="fill:#ff7f05;fill-opacity:1;stroke:#ffffff;stroke-width:0.02860169;stroke-opacity:0.07653061"
     d="M 6.8735644,0.48059612 C 5.9225011,0.52307269 4.9807196,0.74749708 4.0954571,1.0932981 3.0563252,1.5221326 2.348791,2.4632525 1.781848,3.395176 1.0144609,4.6387574 0.53027308,6.0789803 0.54478454,7.5498511 0.51704389,8.5225699 0.72962125,9.4822497 1.0473749,10.396484 c 0.412327,1.181681 0.8218108,2.36816 1.3422856,3.507543 1.0141082,2.155034 2.5293401,4.031459 4.1695586,5.740939 1.8996629,1.944277 4.0087619,3.746771 6.4752179,4.929933 1.121054,0.519987 2.292789,0.920803 3.456541,1.332722 0.960072,0.337503 1.968724,0.566471 2.991633,0.53946 1.539072,9.7e-4 3.03387,-0.543777 4.319308,-1.367056 0.913098,-0.578926 1.817774,-1.329831 2.17255,-2.388536 0.313538,-0.939984 0.580337,-1.927169 0.512261,-2.927093 -0.03447,-0.677257 -0.460195,-1.27426 -1.009372,-1.646022 -0.708429,-0.491024 -1.498675,-0.848434 -2.241485,-1.281652 -0.722534,-0.392215 -1.438883,-0.796563 -2.116268,-1.263684 -0.482143,-0.323564 -1.035182,-0.57786 -1.627744,-0.565508 -0.60634,-0.04957 -1.185842,0.244019 -1.649044,0.610234 -0.643826,0.545172 -1.176261,1.20264 -1.697667,1.861457 -0.07632,0.08169 -0.146816,0.192347 -0.232444,0.252387 C 14.600888,16.980385 13.306778,16.166336 12.22588,15.098465 11.121594,14.03896 10.221703,12.776292 9.47348,11.442647 9.3994994,11.317293 9.3252502,11.191946 9.2580631,11.062777 9.839896,10.54045 10.493931,10.100263 11.034311,9.5308291 11.577129,8.9825258 12.035509,8.2612814 11.986451,7.4594766 11.989589,6.6494145 11.48481,5.977855 11.063257,5.3304791 10.359799,4.2042507 9.7664188,3.0135745 9.1007538,1.8596224 8.750716,1.2745528 8.2540152,0.70221949 7.5564856,0.55522867 7.3331298,0.50311511 7.102984,0.47671607 6.8735644,0.48059612 Z"
     id="path821"
     inkscape:connector-curvature="0" />
</svg>
