<svg version="1.2" baseProfile="tiny-ps" xmlns="http://www.w3.org/2000/svg" viewBox="0 0 32 32" width="32" height="32">
	<title>telegram-svg</title>
	<style>
		tspan { white-space:pre }
		.shp0 { fill: #e3f8fa } 
		.shp1 { fill: #26c6da } 
	</style>
	<path id="Layer" class="shp0" d="M26 32L6 32C2.69 32 0 29.31 0 26L0 6C0 2.69 2.69 0 6 0L26 0C29.31 0 32 2.69 32 6L32 26C32 29.31 29.31 32 26 32Z" />
	<path id="Layer" fill-rule="evenodd" class="shp1" d="M8 16C8 11.58 11.58 8 16 8C20.42 8 24 11.58 24 16C24 20.42 20.42 24 16 24C11.58 24 8 20.42 8 16ZM11.66 15.83C11.13 16.03 11.14 16.33 11.57 16.46L13.55 17.08L18.13 14.19C18.34 14.05 18.54 14.13 18.37 14.27L14.67 17.62L14.53 19.66C14.73 19.66 14.82 19.57 14.93 19.46L15.89 18.53L17.89 20.01C18.26 20.21 18.52 20.11 18.62 19.67L19.93 13.48L19.93 13.48C20.04 12.94 19.73 12.72 19.37 12.85L11.66 15.83Z" />
</svg>