<svg version="1.2" baseProfile="tiny-ps" xmlns="http://www.w3.org/2000/svg" viewBox="0 0 512 513" width="512" height="513">
	<title>whatsapp-svg</title>
	<defs>
		<linearGradient id="grd1" gradientUnits="userSpaceOnUse"  x1="116.472" y1="-12.805" x2="485.395" y2="697.936">
			<stop offset="0" stop-color="#fffcf8"  />
			<stop offset="0.188" stop-color="#faf8f6"  />
			<stop offset="0.404" stop-color="#eceef2"  />
			<stop offset="0.635" stop-color="#d5dcea"  />
			<stop offset="0.875" stop-color="#b5c4df"  />
			<stop offset="1" stop-color="#a1b5d8"  />
		</linearGradient>
		<linearGradient id="grd2" gradientUnits="userSpaceOnUse"  x1="196.373" y1="222.46" x2="-671.016" y2="-265.446">
			<stop offset="0" stop-color="#a1b5d8" stop-opacity="0" />
			<stop offset="0.309" stop-color="#90a2bd" stop-opacity="0.31" />
			<stop offset="0.755" stop-color="#7c8b9c" stop-opacity="0.76" />
			<stop offset="1" stop-color="#748290"  />
		</linearGradient>
		<linearGradient id="grd3" gradientUnits="userSpaceOnUse"  x1="256" y1="451.966" x2="256" y2="531.774">
			<stop offset="0" stop-color="#a1b5d8" stop-opacity="0" />
			<stop offset="0.309" stop-color="#90a2bd" stop-opacity="0.31" />
			<stop offset="0.755" stop-color="#7c8b9c" stop-opacity="0.76" />
			<stop offset="1" stop-color="#748290"  />
		</linearGradient>
		<linearGradient id="grd4" gradientUnits="userSpaceOnUse"  x1="339.204" y1="407.381" x2="145.853" y2="89.627">
			<stop offset="0" stop-color="#a1b5d8" stop-opacity="0" />
			<stop offset="0.309" stop-color="#90a2bd" stop-opacity="0.31" />
			<stop offset="0.755" stop-color="#7c8b9c" stop-opacity="0.76" />
			<stop offset="1" stop-color="#748290"  />
		</linearGradient>
		<linearGradient id="grd5" gradientUnits="userSpaceOnUse"  x1="255.999" y1="409.192" x2="255.999" y2="102.812">
			<stop offset="0" stop-color="#20b038"  />
			<stop offset="1" stop-color="#60d66a"  />
		</linearGradient>
	</defs>
	<style>
		tspan { white-space:pre }
		.shp0 { fill: url(#grd1) } 
		.shp1 { fill: url(#grd2) } 
		.shp2 { fill: url(#grd3) } 
		.shp3 { fill: url(#grd4) } 
		.shp4 { fill: url(#grd5) } 
		.shp5 { fill: #ffffff } 
	</style>
	<path id="Layer" class="shp0" d="M420.42 503.23C310.92 514.92 201.08 514.92 91.58 503.23C47.91 498.57 13.43 464.09 8.77 420.42C-2.92 310.91 -2.92 201.08 8.77 91.58C13.43 47.91 47.91 13.43 91.58 8.77C201.08 -2.92 310.91 -2.92 420.42 8.77C464.09 13.43 498.57 47.91 503.23 91.58C514.92 201.08 514.92 310.91 503.23 420.42C498.57 464.09 464.09 498.57 420.42 503.23Z" />
	<path id="Layer" class="shp1" d="M475.39 110.1C471.25 71.35 440.65 40.75 401.9 36.61C304.73 26.24 207.27 26.24 110.1 36.61C71.35 40.75 40.75 71.35 36.61 110.1C26.24 207.27 26.24 304.73 36.61 401.9C40.75 440.65 71.35 471.25 110.1 475.39C207.27 485.76 304.73 485.76 401.9 475.39C440.65 471.25 471.25 440.65 475.39 401.9C485.76 304.73 485.76 207.27 475.39 110.1L475.39 110.1Z" />
	<path id="Layer" class="shp2" d="M7.67 409.8C8.02 413.34 8.39 416.88 8.77 420.42C13.43 464.09 47.91 498.57 91.58 503.23C201.09 514.92 310.92 514.92 420.42 503.23C464.09 498.57 498.57 464.09 503.23 420.42C503.61 416.88 503.98 413.34 504.33 409.8L7.67 409.8Z" />
	<path id="Layer" fill-rule="evenodd" class="shp3" d="M367.94 143.44C338.24 113.71 299.75 99.34 257.66 99.32C170.95 99.32 101.39 168.86 101.36 255.57C101.34 283.29 110.59 309.34 124.36 333.19L98.02 414.68L194.1 510.76C269.55 513.79 345.06 511.28 420.42 503.23C464.09 498.57 498.57 464.09 503.23 420.42C507.97 376.05 510.79 331.62 511.68 287.18L367.94 143.44Z" />
	<path id="Layer" class="shp4" d="M103.5 409.19L125.04 330.52C111.75 307.5 104.76 281.38 104.77 254.62C104.8 170.91 172.93 102.81 256.64 102.81C297.26 102.83 335.39 118.64 364.06 147.34C392.74 176.04 408.52 214.18 408.5 254.74C408.47 338.45 340.34 406.56 256.64 406.56C256.64 406.56 256.64 406.56 256.64 406.56L256.57 406.56C231.16 406.55 206.19 400.17 184 388.08L103.5 409.19Z" />
	<g id="Layer">
		<path id="Layer" fill-rule="evenodd" class="shp5" d="M367.94 143.44C397.64 173.16 413.99 212.68 413.97 254.7C413.94 341.4 343.36 411.96 256.66 411.96L256.59 411.96C230.27 411.95 204.4 405.35 181.42 392.82L98.02 414.68L120.34 333.19C106.58 309.34 99.34 282.29 99.35 254.57C99.38 167.86 169.95 97.32 256.66 97.32C298.74 97.34 338.24 113.71 367.94 143.44ZM256.66 385.4C328.73 385.4 387.38 326.76 387.41 254.69C387.42 219.76 373.84 186.92 349.15 162.21C324.46 137.51 291.64 123.89 256.71 123.88C184.59 123.88 125.93 182.51 125.91 254.58C125.89 279.28 132.8 303.33 145.89 324.14L149.01 329.09L135.8 377.32L185.29 364.34L190.06 367.18C210.13 379.09 233.14 385.39 256.61 385.4L256.66 385.4Z" />
		<path id="Layer" fill-rule="evenodd" class="shp5" d="M328.38 287.5C324.45 285.54 305.13 276.03 301.52 274.71C297.92 273.41 295.3 272.75 292.68 276.69C290.05 280.62 282.52 289.47 280.23 292.09C277.94 294.71 275.64 295.04 271.71 293.08C267.79 291.11 255.12 286.96 240.11 273.57C228.42 263.15 220.53 250.29 218.24 246.35C215.95 242.42 217.99 240.29 219.96 238.33C221.73 236.57 223.89 233.74 225.86 231.45C227.82 229.15 228.48 227.51 229.79 224.89C231.1 222.27 230.44 219.97 229.46 218.01C228.48 216.04 220.84 196.6 217.34 188.83C214.4 182.29 211.3 182.15 208.5 182.04C206.21 181.94 203.58 181.95 200.96 181.95C198.34 181.95 194.09 182.93 190.48 186.86C186.88 190.8 176.72 200.3 176.72 219.64C176.72 238.98 190.81 257.67 192.77 260.3C194.74 262.92 219.97 303.87 259.92 319.63C293.13 332.72 299.88 330.12 307.09 329.46C314.3 328.8 330.34 319.96 333.62 310.78C336.89 301.6 336.89 293.73 335.91 292.09C334.93 290.45 332.31 289.47 328.38 287.5Z" />
	</g>
</svg>