<?xml version="1.0" encoding="UTF-8" standalone="no"?>
<svg xmlns:dc="http://purl.org/dc/elements/1.1/" xmlns:cc="http://creativecommons.org/ns#"
  xmlns:rdf="http://www.w3.org/1999/02/22-rdf-syntax-ns#" xmlns:svg="http://www.w3.org/2000/svg"
  xmlns="http://www.w3.org/2000/svg" xmlns:sodipodi="http://sodipodi.sourceforge.net/DTD/sodipodi-0.dtd"
  xmlns:inkscape="http://www.inkscape.org/namespaces/inkscape" version="1.2" viewBox="0 0 512 513" width="512"
  height="513" id="svg13" sodipodi:docname="muscle.svg" inkscape:version="0.92.5 (2060ec1f9f, 2020-04-08)">
  <metadata id="metadata19">
    <rdf:RDF>
      <cc:Work rdf:about="">
        <dc:format>image/svg+xml</dc:format>
        <dc:type rdf:resource="http://purl.org/dc/dcmitype/StillImage" />
      </cc:Work>
    </rdf:RDF>
  </metadata>
  <defs id="defs17" />
  <sodipodi:namedview pagecolor="#ffffff" bordercolor="#666666" borderopacity="1" objecttolerance="10"
    gridtolerance="10" guidetolerance="10" inkscape:pageopacity="0" inkscape:pageshadow="2" inkscape:window-width="776"
    inkscape:window-height="480" id="namedview15" showgrid="false" inkscape:zoom="0.46003899" inkscape:cx="256"
    inkscape:cy="256.5" inkscape:window-x="0" inkscape:window-y="0" inkscape:window-maximized="0"
    inkscape:current-layer="svg13" />
  <title id="title2">muscle-svg</title>
  <style id="style4">
    tspan {
      white-space: pre
    }
  </style>
  <path id="Layer" fill-rule="evenodd" class="shp0"
    d="M348.04 108.42C339.81 100.2 335.28 89.25 335.28 77.61C335.28 65.98 339.81 55.04 348.04 46.8C365.03 29.82 392.67 29.82 409.66 46.8L413.34 50.48L417.03 46.8C434.02 29.82 461.66 29.81 478.65 46.8C495.64 63.79 495.64 91.44 478.65 108.43L419.36 167.71C417.7 169.38 415.52 170.21 413.34 170.21C411.17 170.21 408.99 169.38 407.33 167.71L348.04 108.42ZM360.08 58.84C355.06 63.85 352.3 70.52 352.3 77.62C352.3 84.7 355.06 91.38 360.08 96.39L413.34 149.66L466.62 96.39C476.97 86.04 476.97 69.19 466.62 58.84C456.27 48.49 439.43 48.48 429.07 58.84L419.36 68.54C417.77 70.14 415.6 71.04 413.34 71.04C411.09 71.04 408.93 70.14 407.33 68.54L397.63 58.84C392.45 53.66 385.65 51.08 378.85 51.08C372.05 51.08 365.26 53.66 360.08 58.84Z"
    style="fill:#ffffff" />
  <path id="path7" class="shp0"
    d="M493.15 493.65C420.4 501.72 362.71 469.51 362.13 469.19C360.18 468.07 357.86 467.77 355.68 468.37C354.76 468.61 263.26 493.14 189.56 476.78C143.61 466.57 100.28 434.2 68.63 410.57C64.38 407.4 60.36 404.39 56.57 401.63C51.41 397.85 43.2 394.71 35.96 391.94C32.71 390.7 28.26 388.99 27.3 388.39C26.47 387.74 26.02 386.79 26.02 385.7L26.02 365.97C26.43 350.36 91.88 110.18 102.02 79.63C102.27 79.27 103.25 78.56 103.97 78.22L233.48 19.06L275.36 73.57C277.42 76.4 277.23 80.35 274.9 82.95L233.52 129.34C230.82 132.38 226.26 132.71 223.43 130.34L206.7 114.92C204.74 113.11 201.95 112.52 199.34 113C196.71 113.46 194.37 115.33 193.16 117.71C191.76 120.46 179.09 123.84 166.17 123.93L161.96 123.51C158.59 123.11 155.31 124.87 153.66 127.84C152.01 130.81 152.29 134.48 154.37 137.18C157.96 141.82 160.76 145.55 162.35 147.7L170.63 288.46C165.5 308.46 160.79 314.14 159.63 315.27C156.18 316.36 153.67 319.59 153.67 323.39C153.67 328.09 157.48 331.9 162.18 331.9C171.84 331.9 180.04 319.22 186.63 294.46C254.32 243.81 313.39 291.61 318.02 295.54C339.52 317.12 340.86 331.45 340.9 332.09C341 336.7 344.77 340.41 349.41 340.41C354.11 340.41 357.92 336.6 357.92 331.9C357.92 329.95 357.21 313.15 335.18 288.89C355.96 263.35 379.61 248.64 405.66 245.44C450.57 239.91 488.33 270.11 488.71 270.41C492.36 273.38 497.71 272.83 500.68 269.19C503.64 265.55 503.11 260.2 499.48 257.23C497.72 255.8 455.93 222.18 403.75 228.52C373.26 232.22 345.88 248.71 322.29 277.58C303.13 264.56 248.22 235.08 186.8 273.63L179.19 144.18C179.11 142.78 178.68 141.42 177.95 140.23C185.57 139.33 194.64 137.34 201.21 133.01L212.18 143.12C222.39 151.68 237.34 150.62 246.22 140.67L287.59 94.29C295.23 85.73 295.86 72.8 288.98 63.38L242.85 3.32C240.45 0.19 236.19 -0.88 232.57 0.77L97 62.69C95.58 63.31 88.39 66.79 86.03 73.9C81.21 88.37 9 345.88 9 365.95L9 385.7C9 392.04 11.85 397.91 16.8 401.79C19.29 403.73 22.99 405.2 29.88 407.84C35.5 409.99 43.2 412.93 46.53 415.37C50.27 418.1 54.25 421.07 58.45 424.21C91.33 448.77 136.36 482.39 185.87 493.4C256.36 509.06 339.11 490.13 356.84 485.66C368.68 491.78 412.14 512 469.02 512C477.42 512 486.11 511.56 495.03 510.57C499.7 510.05 503.06 505.84 502.55 501.17C502.02 496.49 497.8 493.1 493.15 493.65L493.15 493.65Z"
    style="fill:#ffffff" />
  <path id="path9" class="shp0"
    d="M451.48 390.54C451.02 386.28 447.41 382.96 443.02 382.96C438.32 382.96 434.51 386.78 434.51 391.48C434.51 397.16 438.71 416.41 492.69 425.4C493.16 425.48 493.63 425.52 494.09 425.52C498.18 425.52 501.79 422.57 502.48 418.41C503.25 413.77 500.12 409.39 495.48 408.61C457.74 402.32 451.99 391.67 451.48 390.54L451.48 390.54Z"
    style="fill:#ffffff" />
  <path id="path11" class="shp0"
    d="M288.06 434.21C176.59 458.09 128.89 381.82 126.92 378.57C124.49 374.55 119.27 373.26 115.25 375.67C111.22 378.09 109.92 383.32 112.34 387.35C112.9 388.28 126.44 410.51 155.4 429.45C175.35 442.49 205.78 455.78 246.93 455.78C260.64 455.78 275.53 454.31 291.62 450.86C296.22 449.88 299.15 445.35 298.16 440.76C297.18 436.16 292.66 433.22 288.06 434.21L288.06 434.21Z"
    style="fill:#ffffff" />
</svg>