<?xml version="1.0" encoding="UTF-8" standalone="no"?>
<svg xmlns:dc="http://purl.org/dc/elements/1.1/" xmlns:cc="http://creativecommons.org/ns#"
  xmlns:rdf="http://www.w3.org/1999/02/22-rdf-syntax-ns#" xmlns:svg="http://www.w3.org/2000/svg"
  xmlns="http://www.w3.org/2000/svg" xmlns:sodipodi="http://sodipodi.sourceforge.net/DTD/sodipodi-0.dtd"
  xmlns:inkscape="http://www.inkscape.org/namespaces/inkscape" version="1.2" viewBox="0 0 481 481" width="481"
  height="481" id="svg16" sodipodi:docname="no-plastic.svg" inkscape:version="0.92.5 (2060ec1f9f, 2020-04-08)">
  <metadata id="metadata22">
    <rdf:RDF>
      <cc:Work rdf:about="">
        <dc:format>image/svg+xml</dc:format>
        <dc:type rdf:resource="http://purl.org/dc/dcmitype/StillImage" />
      </cc:Work>
    </rdf:RDF>
  </metadata>
  <defs id="defs20" />
  <sodipodi:namedview pagecolor="#ffffff" bordercolor="#666666" borderopacity="1" objecttolerance="10"
    gridtolerance="10" guidetolerance="10" inkscape:pageopacity="0" inkscape:pageshadow="2" inkscape:window-width="776"
    inkscape:window-height="480" id="namedview18" showgrid="false" inkscape:zoom="0.49064449" inkscape:cx="240.5"
    inkscape:cy="240.5" inkscape:window-x="0" inkscape:window-y="0" inkscape:window-maximized="0"
    inkscape:current-layer="svg16" />
  <title id="title2">no-plastic-svg</title>
  <style id="style4">
    tspan {
      white-space: pre
    }
  </style>
  <g id="g14" style="fill:#ffffff">
    <g id="g12" style="fill:#ffffff">
      <g id="ouline_21_" style="fill:#ffffff">
        <path id="Layer" fill-rule="evenodd" class="shp0"
          d="M240 0C303.68 -0.17 364.79 25.14 409.7 70.3C410.16 70.75 410.62 71.21 411.07 71.67C504.42 165.77 503.81 317.73 409.7 411.07C315.6 504.42 163.64 503.81 70.3 409.71C25.29 364.7 0 303.66 0 240.01C0 107.46 107.45 0 240 0ZM240 464C296.67 464.16 351.26 442.68 392.63 403.94L316.06 327.37C314.27 330.63 311.93 333.55 309.14 336C316.05 342.06 320 350.81 320 360L320 394C320 394.58 319.99 395.16 319.97 395.73C319.47 407.34 313.38 417.98 303.62 424.27C293.63 430.82 281.1 432.19 269.92 427.96L247.12 419.27C242.54 417.53 237.47 417.53 232.88 419.27L210.08 427.96C198.9 432.2 186.37 430.82 176.38 424.27C166.62 417.98 160.53 407.34 160.04 395.73C160.01 395.16 160 394.58 160 394L160 360C160 350.81 163.96 342.06 170.86 336C169.82 335.09 168.84 334.11 167.93 333.07C156.3 319.81 157.61 299.64 170.86 288C169.82 287.09 168.84 286.11 167.93 285.07C156.3 271.81 157.61 251.64 170.86 240C157.84 228.57 156.31 208.83 167.42 195.53C162.73 191.74 160 186.03 160 180C160 177.24 160.14 174.49 160.42 171.74L76.06 87.38C37.45 128.83 15.99 183.38 16 240.03C16 363.73 116.29 464.01 240 464ZM403.93 392.63C484.03 306.62 484.03 173.34 403.93 87.33C319.63 -3.2 177.9 -8.24 87.37 76.06L164.58 153.27C166.37 148.21 168.66 143.34 171.43 138.73L202.94 86.2C201.08 84.68 199.99 82.41 200 80L200 52C200 45.38 205.37 40.01 212 40L268 40C274.62 40.01 279.99 45.38 280 52L280 80C280 82.41 278.91 84.68 277.05 86.2L308.57 138.73C316.04 151.2 319.99 165.46 320 180C319.99 186.03 317.27 191.74 312.57 195.53C323.68 208.83 322.15 228.57 309.13 240C310.17 240.91 311.15 241.89 312.06 242.93C323.7 256.19 322.38 276.37 309.13 288C315.11 293.26 318.92 300.57 319.8 308.49L403.93 392.63ZM264 72L264 56L216 56L216 72L264 72ZM304 216C304 207.16 296.83 200 288 200L211.31 200L243.31 232L288 232C296.83 232 304 224.84 304 216ZM288 248L259.31 248L291.01 279.7C298.54 278.25 303.98 271.67 304 264C303.98 255.17 296.83 248.01 288 248ZM188.98 200.3C181.47 201.76 176.05 208.32 176.03 215.96C176.01 224.8 183.16 231.98 192 232L220.68 232L188.98 200.3L188.98 200.3ZM192 248C183.16 248 176 255.16 176 264C176 272.84 183.16 280 192 280L268.68 280L236.68 248L192 248ZM192 296C183.16 296 176 303.16 176 312C176 320.84 183.16 328 192 328L288 328C295.66 327.99 302.25 322.55 303.7 315.02L284.68 296L192 296ZM192 344C183.16 344.01 176.01 351.17 176 360L176 394C176 394.34 176 394.68 176.02 395.01C176.31 401.48 179.72 407.4 185.16 410.89C190.84 414.68 198.01 415.46 204.38 413.01L226.94 404.41C226.98 404.4 227.01 404.38 227.05 404.36L259.37 391.44C267.47 388.18 276.52 388.18 284.62 391.44C288.64 393.1 290.6 397.66 289.03 401.72C287.43 405.84 282.8 407.88 278.68 406.29C274.39 404.57 269.6 404.57 265.31 406.29L261.73 407.72L275.61 413.01C281.98 415.47 289.15 414.68 294.83 410.89C300.28 407.4 303.68 401.48 303.97 395.01C303.99 394.68 304 394.34 304 394L304 360C303.99 351.17 296.83 344.01 288 344L192 344ZM185.15 146.97C181.58 152.92 179 159.42 177.51 166.2L195.31 184L300 184C302.2 184 304 182.21 304 180C304 168.36 300.83 156.95 294.85 146.97L259.47 88L220.53 88L185.15 146.97Z"
          style="fill:#ffffff" />
        <path id="path7" class="shp0"
          d="M269.49 156.19L274.41 164.19C276.73 167.96 281.66 169.13 285.42 166.81C289.18 164.5 290.36 159.57 288.04 155.81L283.12 147.81C280.8 144.04 275.88 142.87 272.11 145.19C268.35 147.5 267.17 152.43 269.49 156.19Z"
          style="fill:#ffffff" />
        <path id="path9" class="shp0"
          d="M255.95 134.19C258.27 137.96 263.2 139.13 266.96 136.81C270.72 134.5 271.89 129.57 269.58 125.81L254.81 101.81C252.47 98.06 247.54 96.91 243.79 99.24C240.07 101.56 238.9 106.45 241.18 110.19L255.95 134.19Z"
          style="fill:#ffffff" />
      </g>
    </g>
  </g>
</svg>