<?xml version="1.0" encoding="UTF-8" standalone="no"?>
<svg xmlns:dc="http://purl.org/dc/elements/1.1/" xmlns:cc="http://creativecommons.org/ns#"
  xmlns:rdf="http://www.w3.org/1999/02/22-rdf-syntax-ns#" xmlns:svg="http://www.w3.org/2000/svg"
  xmlns="http://www.w3.org/2000/svg" xmlns:sodipodi="http://sodipodi.sourceforge.net/DTD/sodipodi-0.dtd"
  xmlns:inkscape="http://www.inkscape.org/namespaces/inkscape" version="1.2" viewBox="0 0 512 512" width="512"
  height="512" id="svg8" sodipodi:docname="no-plastic-bottles.svg" inkscape:version="0.92.5 (2060ec1f9f, 2020-04-08)">
  <metadata id="metadata14">
    <rdf:RDF>
      <cc:Work rdf:about="">
        <dc:format>image/svg+xml</dc:format>
        <dc:type rdf:resource="http://purl.org/dc/dcmitype/StillImage" />
      </cc:Work>
    </rdf:RDF>
  </metadata>
  <defs id="defs12" />
  <sodipodi:namedview pagecolor="#ffffff" bordercolor="#666666" borderopacity="1" objecttolerance="10"
    gridtolerance="10" guidetolerance="10" inkscape:pageopacity="0" inkscape:pageshadow="2" inkscape:window-width="776"
    inkscape:window-height="480" id="namedview10" showgrid="false" inkscape:zoom="0.4609375" inkscape:cx="28.20339"
    inkscape:cy="256" inkscape:window-x="0" inkscape:window-y="0" inkscape:window-maximized="0"
    inkscape:current-layer="svg8" />
  <title id="title2">no-plastic-bottles-svg</title>
  <style id="style4">
    tspan {
      white-space: pre
    }
  </style>
  <g id="_17-no_plastic" style="fill:#ffffff">
    <path id="Layer" fill-rule="evenodd" class="shp0"
      d="M411.18 147.57C430.74 170.49 444.98 197.46 452.87 226.54C460.77 255.62 462.12 286.09 456.84 315.76C451.56 345.42 439.78 373.55 422.33 398.12C404.89 422.69 382.22 443.09 355.95 457.86C355.71 464.52 354.18 471.08 351.47 477.17C348.75 483.26 344.88 488.77 340.08 493.4C335.28 498.03 329.64 501.7 323.46 504.2C317.28 506.7 310.67 507.99 304 508L208 508C201.33 507.99 194.72 506.7 188.54 504.2C182.36 501.7 176.72 498.03 171.92 493.4C167.12 488.77 163.25 483.26 160.53 477.17C157.82 471.08 156.29 464.52 156.05 457.86C120.02 437.61 90.99 406.9 72.8 369.8C54.61 332.69 48.12 290.93 54.18 250.05C60.25 209.17 78.59 171.1 106.77 140.87C134.95 110.64 171.65 89.69 212 80.78L212 67.3C210.84 66.89 209.75 66.3 208.76 65.56C207.78 64.82 206.92 63.93 206.2 62.92C205.49 61.92 204.94 60.81 204.57 59.63C204.19 58.46 204 57.23 204 56L204 16C204 14.42 204.31 12.86 204.91 11.41C205.52 9.95 206.4 8.63 207.51 7.51C208.63 6.4 209.95 5.52 211.41 4.91C212.86 4.31 214.42 4 216 4L296 4C297.58 4 299.14 4.31 300.59 4.91C302.05 5.52 303.37 6.4 304.49 7.51C305.6 8.63 306.48 9.95 307.09 11.41C307.69 12.86 308 14.42 308 16L308 56C308 57.23 307.81 58.46 307.43 59.63C307.06 60.81 306.51 61.92 305.8 62.92C305.08 63.93 304.22 64.82 303.24 65.56C302.25 66.3 301.16 66.89 300 67.3L300 80.78C310.74 83.16 321.28 86.4 331.5 90.48C341.72 94.55 351.6 99.45 361.03 105.12C370.46 110.78 379.42 117.2 387.82 124.31C396.22 131.42 404.03 139.2 411.18 147.57ZM374.67 144.36C369.91 140.2 364.93 136.29 359.76 132.66C354.58 129.02 349.22 125.67 343.69 122.6C338.16 119.53 332.47 116.76 326.65 114.3C320.82 111.84 314.87 109.68 308.82 107.85L340.77 139.8C342.46 141.48 344.03 143.28 345.48 145.18C346.92 147.08 348.23 149.08 349.39 151.16C350.56 153.25 351.58 155.41 352.45 157.63C353.31 159.85 354.03 162.13 354.58 164.45L374.67 144.36ZM156 396.97L137.44 415.53C138.91 416.81 140.4 418.06 141.91 419.29C143.42 420.52 144.95 421.73 146.49 422.91C148.04 424.09 149.61 425.24 151.19 426.37C152.78 427.5 154.38 428.61 156 429.69L156 396.97ZM180 412L332 412L332 268L284.97 268L180 372.97L180 412ZM180 339.03L251.03 268L180 268L180 339.03ZM332 187.03L332 176.57C332.01 174.74 331.83 172.9 331.47 171.1C331.12 169.3 330.59 167.54 329.88 165.85C329.18 164.15 328.31 162.53 327.29 161.01C326.27 159.48 325.1 158.06 323.8 156.77L279.51 112.48C278.96 111.93 278.46 111.32 278.02 110.67C277.59 110.01 277.21 109.32 276.91 108.59C276.61 107.87 276.38 107.11 276.23 106.34C276.08 105.57 276 104.79 276 104L276 68L236 68L236 104C236 104.79 235.92 105.57 235.77 106.34C235.62 107.11 235.39 107.87 235.09 108.59C234.78 109.32 234.41 110.01 233.98 110.67C233.54 111.32 233.04 111.93 232.48 112.48L188.2 156.77C186.9 158.06 185.73 159.48 184.71 161.01C183.69 162.53 182.82 164.15 182.12 165.85C181.41 167.54 180.88 169.3 180.53 171.1C180.17 172.9 179.99 174.73 180 176.57L180 244L275.03 244L332 187.03ZM332 220.97L308.97 244L332 244L332 220.97ZM228 44L284 44L284 28L228 28L228 44ZM76 280C75.98 290.79 76.93 301.56 78.85 312.19C80.76 322.81 83.63 333.23 87.42 343.34C91.21 353.44 95.9 363.19 101.44 372.45C106.98 381.71 113.35 390.45 120.46 398.57L156 363.03L156 176.57C155.99 173.16 156.32 169.76 156.98 166.42C157.64 163.08 158.63 159.81 159.93 156.66C161.24 153.51 162.85 150.5 164.75 147.67C166.64 144.84 168.81 142.2 171.23 139.8L203.18 107.85C184.85 113.42 167.54 121.89 151.89 132.93C136.25 143.98 122.47 157.46 111.09 172.87C99.71 188.27 90.87 205.4 84.91 223.61C78.95 241.81 75.94 260.85 76 280ZM332 436L180 436L180 456C180 459.68 180.73 463.31 182.14 466.71C183.55 470.11 185.61 473.19 188.21 475.79C190.81 478.39 193.89 480.45 197.29 481.86C200.69 483.27 204.32 484 208 484L304 484C307.68 484 311.31 483.27 314.71 481.86C318.11 480.45 321.19 478.39 323.79 475.79C326.39 473.19 328.45 470.11 329.86 466.71C331.27 463.31 332 459.68 332 456L332 436ZM356 429.69C377.28 415.43 395.28 396.82 408.8 375.07C422.32 353.32 431.06 328.95 434.43 303.56C437.8 278.17 435.73 252.36 428.35 227.84C420.97 203.32 408.46 180.65 391.63 161.34L356 196.97L356 429.69Z"
      style="fill:#ffffff" />
  </g>
</svg>