<?xml version="1.0" encoding="UTF-8" standalone="no"?>
<svg xmlns:dc="http://purl.org/dc/elements/1.1/" xmlns:cc="http://creativecommons.org/ns#"
  xmlns:rdf="http://www.w3.org/1999/02/22-rdf-syntax-ns#" xmlns:svg="http://www.w3.org/2000/svg"
  xmlns="http://www.w3.org/2000/svg" xmlns:sodipodi="http://sodipodi.sourceforge.net/DTD/sodipodi-0.dtd"
  xmlns:inkscape="http://www.inkscape.org/namespaces/inkscape" version="1.2" viewBox="0 0 512 512" width="512"
  height="512" id="svg9" sodipodi:docname="no.svg" inkscape:version="0.92.5 (2060ec1f9f, 2020-04-08)">
  <metadata id="metadata15">
    <rdf:RDF>
      <cc:Work rdf:about="">
        <dc:format>image/svg+xml</dc:format>
        <dc:type rdf:resource="http://purl.org/dc/dcmitype/StillImage" />
      </cc:Work>
    </rdf:RDF>
  </metadata>
  <defs id="defs13" />
  <sodipodi:namedview pagecolor="#ffffff" bordercolor="#666666" borderopacity="1" objecttolerance="10"
    gridtolerance="10" guidetolerance="10" inkscape:pageopacity="0" inkscape:pageshadow="2" inkscape:window-width="776"
    inkscape:window-height="480" id="namedview11" showgrid="false" inkscape:zoom="0.4609375" inkscape:cx="256"
    inkscape:cy="256" inkscape:window-x="0" inkscape:window-y="0" inkscape:window-maximized="0"
    inkscape:current-layer="svg9" />
  <title id="title2">no-svg</title>
  <style id="style4">
    tspan {
      white-space: pre
    }
  </style>
  <g id="g7" style="fill:#ffffff">
    <path id="Layer" fill-rule="evenodd" class="shp0"
      d="M173.16 383.29C190.91 383.29 202.01 386.87 211.04 390.86C226.07 376 232.79 363.16 230.98 352.68C229.11 341.89 222.82 336.84 221.57 322.95C220.98 316.41 221.56 309.76 223.24 303.08C215.29 299.61 209.73 291.68 209.73 282.46L209.73 250.16C209.73 239.56 217.11 230.65 227 228.28L227 175.78C227 173.85 225.43 172.28 223.5 172.28L152.45 172.28C150.09 182.17 141.18 189.55 130.57 189.55L98.27 189.55C87.67 189.55 78.76 182.17 76.39 172.28L7.5 172.28C3.36 172.28 0 168.92 0 164.78C0 160.64 3.36 157.28 7.5 157.28L75.77 157.28L75.77 32.28L7.5 32.28C3.36 32.28 0 28.92 0 24.78C0 20.64 3.36 17.28 7.5 17.28L76.39 17.28C78.75 7.38 87.66 0 98.27 0L130.57 0C141.18 0 150.09 7.38 152.45 17.28L242.05 17.28C264.11 17.28 285.86 22.51 305.38 32.42C307.22 30.19 309.17 28.03 311.24 25.96C345.72 -8.52 401.9 -8.74 436.61 25.96C470.75 60.11 471.66 116.28 436.61 151.33C421.78 166.16 402.63 175.07 382 176.92L382 228.28C391.9 230.64 399.28 239.56 399.28 250.16L399.28 282.46C399.28 293.25 391.64 302.29 381.49 304.46C378.41 310.41 376.36 316.59 375.41 322.87C373.91 332.7 375.44 339.8 377.06 347.31C380.19 361.9 380.13 374.46 373.94 389.68C377.39 391.09 380.51 392.59 383.51 394.04C393.36 398.8 402.67 403.29 421.66 403.29C440.66 403.29 449.96 398.8 459.82 394.04C470.25 389 482.07 383.29 504.5 383.29C508.64 383.29 512 386.65 512 390.79C512 394.94 508.64 398.29 504.5 398.29C485.51 398.29 476.2 402.79 466.34 407.55C455.91 412.58 444.09 418.29 421.66 418.29C399.24 418.29 387.41 412.58 376.98 407.55C367.13 402.79 357.82 398.29 338.83 398.29C319.83 398.29 310.53 402.79 300.67 407.55C290.24 412.58 278.42 418.29 255.99 418.29C233.57 418.29 221.75 412.58 211.32 407.55C201.46 402.79 192.15 398.29 173.16 398.29C154.17 398.29 144.86 402.79 135.01 407.55C124.58 412.58 112.75 418.29 90.33 418.29C67.91 418.29 56.08 412.58 45.65 407.55C35.8 402.79 26.49 398.29 7.5 398.29C3.36 398.29 0 394.94 0 390.79C0 386.65 3.36 383.29 7.5 383.29C29.92 383.29 41.75 389 52.18 394.04C62.03 398.8 71.34 403.29 90.33 403.29C109.32 403.29 118.63 398.8 128.48 394.04C138.92 389 150.74 383.29 173.16 383.29ZM245.76 350.13C248.3 364.8 241.65 380.38 225.46 397.57C233.09 400.8 241.86 403.29 255.99 403.29C274.98 403.29 284.29 398.8 294.15 394.04C304.58 389 316.4 383.29 338.83 383.29C346.98 383.29 353.73 384.05 359.53 385.25C365.04 372.55 365 362.61 362.39 350.47C360.65 342.36 358.67 333.17 360.58 320.62C361.38 315.31 362.82 310.07 364.82 304.96L332.73 304.96C328.58 304.96 325.23 301.61 325.23 297.46C325.23 293.32 328.58 289.96 332.73 289.96L376.78 289.96C380.91 289.96 384.28 286.6 384.28 282.46L384.28 250.16C384.28 246.03 380.91 242.66 376.78 242.66L232.23 242.66C228.09 242.66 224.73 246.03 224.73 250.16L224.73 282.46C224.73 286.6 228.09 289.96 232.23 289.96L232.65 289.96C232.72 289.96 232.78 289.96 232.85 289.96L297.73 289.96C301.87 289.96 305.23 293.32 305.23 297.46C305.23 301.61 301.87 304.96 297.73 304.96L238.26 304.96C236.62 310.61 236.02 316.19 236.51 321.61C237.6 333.72 243.78 338.66 245.76 350.13ZM276.86 372.38C276.86 368.24 280.22 364.88 284.36 364.88C288.5 364.88 291.86 368.24 291.86 372.38C291.86 376.52 288.5 379.88 284.36 379.88C280.22 379.88 276.86 376.52 276.86 372.38ZM512 484.5C512 488.64 508.64 492 504.5 492C485.51 492 476.2 496.49 466.34 501.25C455.91 506.29 444.09 512 421.66 512C399.24 512 387.41 506.29 376.98 501.25C367.13 496.49 357.82 492 338.83 492C319.83 492 310.53 496.49 300.67 501.25C290.24 506.29 278.42 512 255.99 512C233.57 512 221.75 506.29 211.32 501.25C201.46 496.49 192.16 492 173.16 492C154.17 492 144.86 496.49 135.01 501.25C124.58 506.29 112.76 512 90.33 512C67.91 512 56.09 506.29 45.65 501.25C35.8 496.49 26.49 492 7.5 492C3.36 492 0 488.64 0 484.5C0 480.36 3.36 477 7.5 477C29.92 477 41.75 482.71 52.18 487.75C62.03 492.5 71.34 497 90.33 497C109.32 497 118.63 492.5 128.49 487.75C138.92 482.71 150.74 477 173.16 477C195.59 477 207.41 482.71 217.84 487.75C227.69 492.5 237 497 255.99 497C274.99 497 284.29 492.5 294.15 487.75C304.58 482.71 316.4 477 338.83 477C361.25 477 373.08 482.71 383.51 487.75C393.36 492.5 402.67 497 421.66 497C440.66 497 449.96 492.5 459.82 487.75C470.25 482.71 482.07 477 504.5 477C508.64 477 512 480.36 512 484.5ZM163.26 434.05C167.4 434.05 170.76 437.41 170.76 441.55C170.76 445.69 167.4 449.05 163.26 449.05C159.12 449.05 155.76 445.69 155.76 441.55C155.76 437.41 159.12 434.05 163.26 434.05ZM252.69 446.78C256.83 446.78 260.19 450.14 260.19 454.28C260.19 458.42 256.83 461.78 252.69 461.78C248.55 461.78 245.19 458.42 245.19 454.28C245.19 450.14 248.55 446.78 252.69 446.78ZM57.89 439.28C62.03 439.28 65.39 442.64 65.39 446.78C65.39 450.92 62.03 454.28 57.89 454.28C53.75 454.28 50.39 450.92 50.39 446.78C50.39 442.64 53.75 439.28 57.89 439.28ZM343.2 431.78C347.34 431.78 350.7 435.14 350.7 439.28C350.7 443.42 347.34 446.78 343.2 446.78C339.06 446.78 335.7 443.42 335.7 439.28C335.7 435.14 339.06 431.78 343.2 431.78ZM257.73 331.42C257.73 327.28 261.08 323.92 265.23 323.92C269.37 323.92 272.73 327.28 272.73 331.42C272.73 335.56 269.37 338.92 265.23 338.92C261.08 338.92 257.73 335.57 257.73 331.42ZM431.04 42.14L327.42 145.76C340.52 156.47 356.77 162.3 373.92 162.3C393.59 162.3 412.09 154.64 426 140.73C452.35 114.37 454.45 70.56 431.04 42.14ZM316.81 135.16L420.43 31.54C391.11 7.57 348.47 9.95 321.84 36.57C295.27 63.15 293.06 106.11 316.81 135.16ZM223.5 157.28C233.7 157.28 242 165.58 242 175.78L242 227.66L367 227.66L367 177.01C345.93 175.39 326.34 166.43 311.24 151.33C283.11 123.21 277.31 78.78 296.81 44.89C279.86 36.62 261.08 32.28 242.05 32.28L153.07 32.28L153.07 53.74C153.07 57.88 149.72 61.24 145.57 61.24C141.43 61.24 138.07 57.88 138.07 53.74L138.07 24.86C138.07 24.83 138.07 24.81 138.07 24.78C138.07 24.71 138.07 22.58 138.07 22.5C138.07 18.36 134.71 15 130.57 15L98.28 15C94.14 15 90.78 18.36 90.78 22.5L90.78 167.05C90.78 171.19 94.14 174.55 98.28 174.55L130.57 174.55C134.71 174.55 138.07 171.19 138.07 167.05L138.07 88.74C138.07 84.6 141.43 81.24 145.57 81.24C149.72 81.24 153.07 84.6 153.07 88.74L153.07 157.28L223.5 157.28ZM310.23 334.28C310.23 330.14 313.58 326.78 317.73 326.78C321.87 326.78 325.23 330.14 325.23 334.28C325.23 338.42 321.87 341.78 317.73 341.78C313.58 341.78 310.23 338.42 310.23 334.28ZM425.83 446.78C429.97 446.78 433.33 450.14 433.33 454.28C433.33 458.42 429.97 461.78 425.83 461.78C421.69 461.78 418.33 458.42 418.33 454.28C418.33 450.14 421.69 446.78 425.83 446.78Z"
      style="fill:#ffffff" />
  </g>
</svg>