<?xml version="1.0" encoding="UTF-8" standalone="no"?>
<svg xmlns:dc="http://purl.org/dc/elements/1.1/" xmlns:cc="http://creativecommons.org/ns#"
  xmlns:rdf="http://www.w3.org/1999/02/22-rdf-syntax-ns#" xmlns:svg="http://www.w3.org/2000/svg"
  xmlns="http://www.w3.org/2000/svg" xmlns:sodipodi="http://sodipodi.sourceforge.net/DTD/sodipodi-0.dtd"
  xmlns:inkscape="http://www.inkscape.org/namespaces/inkscape" version="1.2" viewBox="0 0 64 64" width="64" height="64"
  id="svg33" sodipodi:docname="physics.svg" inkscape:version="0.92.5 (2060ec1f9f, 2020-04-08)">
  <metadata id="metadata39">
    <rdf:RDF>
      <cc:Work rdf:about="">
        <dc:format>image/svg+xml</dc:format>
        <dc:type rdf:resource="http://purl.org/dc/dcmitype/StillImage" />
      </cc:Work>
    </rdf:RDF>
  </metadata>
  <defs id="defs37" />
  <sodipodi:namedview pagecolor="#ffffff" bordercolor="#666666" borderopacity="1" objecttolerance="10"
    gridtolerance="10" guidetolerance="10" inkscape:pageopacity="0" inkscape:pageshadow="2" inkscape:window-width="776"
    inkscape:window-height="480" id="namedview35" showgrid="false" inkscape:zoom="3.6875" inkscape:cx="32"
    inkscape:cy="32" inkscape:window-x="0" inkscape:window-y="0" inkscape:window-maximized="0"
    inkscape:current-layer="svg33" />
  <title id="title2">physics-svg</title>
  <style id="style4">
    tspan {
      white-space: pre
    }
  </style>
  <g id="g31" style="fill:#ffffff">
    <path id="Layer" fill-rule="evenodd" class="shp0"
      d="M62.19 44L55.48 54.43C56.44 55.36 57 56.63 57 58C57 60.76 54.76 63 52 63C49.59 63 47.57 61.28 47.1 59L40.82 59C40.4 60.16 39.3 61 38 61C36.35 61 35 59.65 35 58C35 57.34 35.25 56.7 35.64 56.18L28.45 45L15.51 45L10.09 52.46C10.66 53.15 11 54.05 11 55C11 57.21 9.21 59 7 59C4.79 59 3 57.21 3 55C3 52.79 4.79 51 7 51C7.51 51 8 51.11 8.46 51.29L13.79 43.96L7.8 34.65C7.23 34.87 6.62 35 6 35C3.24 35 1 32.76 1 30C1 27.24 3.24 25 6 25C6.62 25 7.23 25.13 7.8 25.35L12.06 18.72C11.39 17.99 11 17.03 11 16C11 13.79 12.79 12 15 12C16.86 12 18.41 13.28 18.86 15L28.49 15L33.91 7.54C33.34 6.85 33 5.95 33 5C33 2.79 34.79 1 37 1C39.21 1 41 2.79 41 5C41 7.21 39.21 9 37 9C36.49 9 36 8.89 35.54 8.71L30.21 16.04L38.55 29L51.45 29L56.08 21.73C55.39 21.01 55 20.04 55 19C55 16.79 56.79 15 59 15C61.21 15 63 16.79 63 19C63 21.21 61.21 23 59 23C58.57 23 58.16 22.93 57.77 22.8L53.19 30L62.19 44ZM57 19C57 19.69 57.35 20.32 57.92 20.68C58.24 20.89 58.61 21 59 21C60.1 21 61 20.1 61 19C61 17.9 60.1 17 59 17C57.9 17 57 17.9 57 19ZM35 5C35 5.64 35.31 6.24 35.82 6.6C36.17 6.87 36.57 7 37 7C38.1 7 39 6.1 39 5C39 3.9 38.1 3 37 3C35.9 3 35 3.9 35 5ZM18.86 17C18.41 18.72 16.86 20 15 20C14.57 20 14.16 19.92 13.75 19.79L9.48 26.43C10.44 27.36 11 28.63 11 30C11 31.37 10.44 32.64 9.48 33.57L15.55 43L28.45 43L36.81 30L28.45 17L18.86 17ZM13 16C13 16.68 13.34 17.31 13.92 17.68C14.25 17.89 14.62 18 15 18C16.1 18 17 17.1 17 16C17 14.9 16.1 14 15 14C13.9 14 13 14.9 13 16ZM6 33C6.58 33 7.13 32.84 7.62 32.52C8.48 31.97 9 31.02 9 30C9 28.98 8.48 28.03 7.62 27.48C7.13 27.16 6.58 27 6 27C4.35 27 3 28.35 3 30C3 31.65 4.35 33 6 33ZM9 55C9 54.36 8.69 53.76 8.18 53.4C7.83 53.13 7.43 53 7 53C5.9 53 5 53.9 5 55C5 56.1 5.9 57 7 57C8.1 57 9 56.1 9 55ZM39 58C39 57.45 38.55 57 38 57C37.8 57 37.63 57.05 37.48 57.15C37.17 57.34 37 57.66 37 58C37 58.55 37.45 59 38 59C38.55 59 39 58.55 39 58ZM52 53C52.62 53 53.23 53.13 53.8 53.35L59.81 44L51.45 31L38.55 31L30.19 44L37.31 55.09C37.54 55.03 37.76 55 38 55C39.3 55 40.4 55.84 40.82 57L47.1 57C47.57 54.72 49.59 53 52 53ZM55 58C55 56.98 54.48 56.03 53.62 55.48C53.13 55.16 52.58 55 52 55C50.35 55 49 56.35 49 58C49 59.65 50.35 61 52 61C53.65 61 55 59.65 55 58Z"
      style="fill:#ffffff" />
    <path id="path7" class="shp0" d="M15 25L23 25L23 27L15 27L15 25Z" style="fill:#ffffff" />
    <path id="path9" class="shp0" d="M25 25L29 25L29 27L25 27L25 25Z" style="fill:#ffffff" />
    <path id="path11" class="shp0" d="M15 29L29 29L29 31L15 31L15 29Z" style="fill:#ffffff" />
    <path id="path13" class="shp0" d="M27 33L29 33L29 35L27 35L27 33Z" style="fill:#ffffff" />
    <path id="path15" class="shp0" d="M23 33L25 33L25 35L23 35L23 33Z" style="fill:#ffffff" />
    <path id="path17" class="shp0" d="M15 33L21 33L21 35L15 35L15 33Z" style="fill:#ffffff" />
    <path id="path19" class="shp0" d="M38 39L46 39L46 41L38 41L38 39Z" style="fill:#ffffff" />
    <path id="path21" class="shp0" d="M48 39L52 39L52 41L48 41L48 39Z" style="fill:#ffffff" />
    <path id="path23" class="shp0" d="M38 43L52 43L52 45L38 45L38 43Z" style="fill:#ffffff" />
    <path id="path25" class="shp0" d="M50 47L52 47L52 49L50 49L50 47Z" style="fill:#ffffff" />
    <path id="path27" class="shp0" d="M46 47L48 47L48 49L46 49L46 47Z" style="fill:#ffffff" />
    <path id="path29" class="shp0" d="M38 47L44 47L44 49L38 49L38 47Z" style="fill:#ffffff" />
  </g>
</svg>