<?xml version="1.0" encoding="UTF-8" standalone="no"?>
<svg
   xmlns:dc="http://purl.org/dc/elements/1.1/"
   xmlns:cc="http://creativecommons.org/ns#"
   xmlns:rdf="http://www.w3.org/1999/02/22-rdf-syntax-ns#"
   xmlns:svg="http://www.w3.org/2000/svg"
   xmlns="http://www.w3.org/2000/svg"
   xmlns:sodipodi="http://sodipodi.sourceforge.net/DTD/sodipodi-0.dtd"
   xmlns:inkscape="http://www.inkscape.org/namespaces/inkscape"
   version="1.2"
   viewBox="0 0 512 512"
   width="512"
   height="512"
   id="svg7"
   sodipodi:docname="repair.svg"
   inkscape:version="0.92.5 (2060ec1f9f, 2020-04-08)">
  <metadata
     id="metadata13">
    <rdf:RDF>
      <cc:Work
         rdf:about="">
        <dc:format>image/svg+xml</dc:format>
        <dc:type
           rdf:resource="http://purl.org/dc/dcmitype/StillImage" />
      </cc:Work>
    </rdf:RDF>
  </metadata>
  <defs
     id="defs11" />
  <sodipodi:namedview
     pagecolor="#ffffff"
     bordercolor="#666666"
     borderopacity="1"
     objecttolerance="10"
     gridtolerance="10"
     guidetolerance="10"
     inkscape:pageopacity="0"
     inkscape:pageshadow="2"
     inkscape:window-width="776"
     inkscape:window-height="480"
     id="namedview9"
     showgrid="false"
     inkscape:zoom="0.4609375"
     inkscape:cx="256"
     inkscape:cy="256"
     inkscape:window-x="0"
     inkscape:window-y="0"
     inkscape:window-maximized="0"
     inkscape:current-layer="svg7" />
  <title
     id="title2">repair-svg</title>
  <style
     id="style4">
		tspan { white-space:pre }
		.shp0 { fill: #000000 } 
	</style>
  <path
     id="Layer"
     fill-rule="evenodd"
     class="shp0"
     d="M427.06 168.61C428.03 169.01 428.91 169.6 429.66 170.34C430.4 171.09 430.99 171.97 431.39 172.94C431.79 173.91 432 174.95 432 176L432 352C432 353.05 431.79 354.09 431.39 355.06C430.99 356.03 430.4 356.91 429.66 357.66C428.91 358.4 428.03 358.99 427.06 359.39C426.09 359.79 425.05 360 424 360L376 360C372.85 360 369.73 359.37 366.82 358.17C363.91 356.96 361.27 355.19 359.04 352.96C356.81 350.73 355.04 348.09 353.83 345.18C352.63 342.27 352 339.15 352 336L352 328L335.43 328C334.47 334.61 332.33 340.99 329.13 346.85C325.92 352.7 321.69 357.94 316.65 362.31C311.6 366.68 305.81 370.12 299.55 372.45C293.3 374.79 286.68 375.99 280 376L261.05 376L279.97 446.63C282.76 456.89 281.34 467.84 276.04 477.06C270.74 486.28 261.99 493.01 251.72 495.76C241.45 498.51 230.5 497.06 221.3 491.73C212.1 486.39 205.41 477.61 202.69 467.33L178.22 376L120.55 376C102.93 376 88.33 361.92 88 344.61C87.97 343.14 88.04 341.67 88.21 340.2C88.39 338.74 88.66 337.29 89.03 335.87C89.41 334.44 89.88 333.05 90.45 331.69C91.01 330.33 91.67 329.01 92.42 327.74C76.71 325.75 64.3 312.55 64 296.61C63.95 294.46 64.13 292.32 64.51 290.21C64.9 288.09 65.5 286.03 66.3 284.04C67.1 282.04 68.11 280.14 69.29 278.35C70.48 276.56 71.85 274.89 73.37 273.38C73.85 272.9 74.35 272.44 74.85 271.99C71.57 269.1 68.91 265.57 67.05 261.62C65.19 257.67 64.15 253.37 64.02 249.01C63.88 244.64 64.64 240.29 66.24 236.22C67.85 232.16 70.28 228.47 73.37 225.38C73.85 224.9 74.35 224.44 74.85 223.99C69.97 219.7 66.52 214.02 64.95 207.71C63.38 201.4 63.77 194.76 66.06 188.68C68.36 182.6 72.46 177.37 77.81 173.67C83.15 169.98 89.5 168 96 168L114.07 168C100.66 162.58 88.97 153.63 80.24 142.09C71.51 130.56 66.07 116.88 64.49 102.5C62.92 88.12 65.27 73.58 71.3 60.43C77.33 47.29 86.81 36.02 98.73 27.82C99.79 27.1 101 26.64 102.27 26.48C103.54 26.32 104.83 26.47 106.03 26.92C107.23 27.36 108.31 28.08 109.17 29.03C110.03 29.97 110.66 31.11 110.99 32.35L124.42 82.48L155.33 74.2L141.9 24.07C141.57 22.83 141.54 21.53 141.81 20.28C142.09 19.03 142.66 17.87 143.48 16.88C144.29 15.9 145.34 15.13 146.51 14.63C147.69 14.13 148.97 13.92 150.25 14.02C162.44 14.99 174.25 18.74 184.77 24.97C195.28 31.21 204.24 39.77 210.94 49.99C217.64 60.22 221.91 71.85 223.43 83.98C224.94 96.12 223.66 108.44 219.68 120L240 120C250.88 120 261.67 122.02 271.82 125.95C281.97 129.89 291.29 135.67 299.33 143.01C307.37 150.34 313.98 159.11 318.82 168.86C323.66 178.6 326.65 189.16 327.64 200L352 200L352 192C352 188.85 352.63 185.73 353.83 182.82C355.04 179.91 356.81 177.27 359.04 175.04C361.27 172.81 363.91 171.04 366.82 169.83C369.73 168.63 372.85 168 376 168L424 168C425.05 168 426.09 168.21 427.06 168.61ZM139.05 167.99L188.75 167.99L183.9 149.89C183.7 149.18 183.61 148.44 183.62 147.7C183.64 146.96 183.75 146.22 183.96 145.51C184.18 144.8 184.49 144.13 184.89 143.5C185.29 142.88 185.77 142.32 186.33 141.83C195.02 134.17 201.46 124.3 204.98 113.27C208.51 102.24 208.97 90.46 206.33 79.19C203.69 67.91 198.04 57.57 189.98 49.25C181.92 40.94 171.76 34.96 160.58 31.96L172.86 77.78C173.13 78.8 173.2 79.86 173.06 80.9C172.92 81.94 172.58 82.94 172.06 83.85C171.53 84.76 170.83 85.56 170 86.2C169.17 86.84 168.22 87.31 167.2 87.58L120.84 100.01C119.82 100.28 118.76 100.35 117.72 100.21C116.68 100.07 115.68 99.73 114.77 99.21C113.86 98.68 113.06 97.98 112.42 97.15C111.78 96.32 111.31 95.36 111.04 94.35L98.76 48.53C90.57 56.71 84.76 66.97 81.94 78.2C79.12 89.43 79.4 101.22 82.75 112.3C86.1 123.38 92.39 133.35 100.96 141.14C109.52 148.94 120.04 154.26 131.39 156.55C132.11 156.69 132.82 156.94 133.47 157.28C134.13 157.62 134.74 158.05 135.28 158.56C135.82 159.07 136.29 159.65 136.67 160.28C137.05 160.92 137.34 161.6 137.53 162.32L139.05 167.99ZM244.48 376L194.79 376L218.15 463.19C219.79 469.34 223.82 474.58 229.33 477.76C234.84 480.95 241.39 481.81 247.54 480.16C253.69 478.52 258.93 474.5 262.11 468.98C265.3 463.47 266.16 456.92 264.51 450.77L244.48 376ZM352 312L352 216L320 216C318.95 216 317.91 215.79 316.94 215.39C315.97 214.99 315.09 214.4 314.34 213.66C313.6 212.91 313.01 212.03 312.61 211.06C312.21 210.09 312 209.05 312 208C312 198.54 310.14 189.18 306.52 180.45C302.9 171.71 297.6 163.77 290.91 157.09C284.23 150.4 276.29 145.1 267.55 141.48C258.82 137.86 249.46 136 240 136L212.04 136C211.23 137.3 210.38 138.58 209.49 139.83C208.6 141.09 207.68 142.32 206.73 143.52C205.77 144.72 204.78 145.89 203.76 147.03C202.73 148.18 201.68 149.29 200.59 150.38L205.31 168L248 168C250.12 168 252.16 168.84 253.66 170.34C255.16 171.84 256 173.88 256 176C256 178.12 255.16 180.16 253.66 181.66C252.16 183.16 250.12 184 248 184L96 184C91.76 184 87.69 185.69 84.69 188.69C81.69 191.69 80 195.76 80 200C80 204.24 81.69 208.31 84.69 211.31C87.69 214.31 91.76 216 96 216L144 216C146.12 216 148.16 216.84 149.66 218.34C151.16 219.84 152 221.88 152 224C152 226.12 151.16 228.16 149.66 229.66C148.16 231.16 146.12 232 144 232L96 232C91.76 232 87.69 233.69 84.69 236.69C81.69 239.69 80 243.76 80 248C80 252.24 81.69 256.31 84.69 259.31C87.69 262.31 91.76 264 96 264L144 264C146.12 264 148.16 264.84 149.66 266.34C151.16 267.84 152 269.88 152 272C152 274.12 151.16 276.16 149.66 277.66C148.16 279.16 146.12 280 144 280L96 280C93.87 280 91.77 280.43 89.8 281.25C87.84 282.07 86.06 283.28 84.57 284.8C83.08 286.32 81.91 288.12 81.13 290.1C80.34 292.08 79.96 294.19 80 296.32C80.16 304.96 87.59 312 96.55 312L168 312C170.12 312 172.16 312.84 173.66 314.34C175.16 315.84 176 317.88 176 320C176 322.12 175.16 324.16 173.66 325.66C172.16 327.16 170.12 328 168 328L120 328C117.87 328 115.77 328.43 113.8 329.25C111.84 330.07 110.06 331.28 108.57 332.8C107.08 334.32 105.91 336.12 105.13 338.1C104.34 340.08 103.96 342.19 104 344.32C104.16 352.96 111.59 360 120.55 360L280 360C285.25 359.99 290.45 358.96 295.3 356.94C300.15 354.93 304.56 351.98 308.27 348.27C311.98 344.56 314.93 340.15 316.94 335.3C318.96 330.45 319.99 325.25 320 320C320 318.95 320.21 317.91 320.61 316.94C321.01 315.97 321.6 315.09 322.34 314.34C323.09 313.6 323.97 313.01 324.94 312.61C325.91 312.21 326.95 312 328 312L352 312ZM416 184L376 184C374.95 184 373.91 184.21 372.94 184.61C371.97 185.01 371.09 185.6 370.35 186.35C369.6 187.09 369.01 187.97 368.61 188.94C368.21 189.91 368 190.95 368 192L368 336C368 337.05 368.21 338.09 368.61 339.06C369.01 340.03 369.6 340.91 370.35 341.65C371.09 342.4 371.97 342.99 372.94 343.39C373.91 343.79 374.95 344 376 344L416 344L416 184Z"
     style="fill:#ffffff" />
</svg>
