<?xml version="1.0" encoding="UTF-8" standalone="no"?>
<svg xmlns:dc="http://purl.org/dc/elements/1.1/" xmlns:cc="http://creativecommons.org/ns#"
  xmlns:rdf="http://www.w3.org/1999/02/22-rdf-syntax-ns#" xmlns:svg="http://www.w3.org/2000/svg"
  xmlns="http://www.w3.org/2000/svg" xmlns:sodipodi="http://sodipodi.sourceforge.net/DTD/sodipodi-0.dtd"
  xmlns:inkscape="http://www.inkscape.org/namespaces/inkscape" version="1.2" viewBox="0 0 513 513" width="513"
  height="513" id="svg19" sodipodi:docname="snap.svg" inkscape:version="0.92.5 (2060ec1f9f, 2020-04-08)">
  <metadata id="metadata25">
    <rdf:RDF>
      <cc:Work rdf:about="">
        <dc:format>image/svg+xml</dc:format>
        <dc:type rdf:resource="http://purl.org/dc/dcmitype/StillImage" />
      </cc:Work>
    </rdf:RDF>
  </metadata>
  <defs id="defs23" />
  <sodipodi:namedview pagecolor="#ffffff" bordercolor="#666666" borderopacity="1" objecttolerance="10"
    gridtolerance="10" guidetolerance="10" inkscape:pageopacity="0" inkscape:pageshadow="2" inkscape:window-width="776"
    inkscape:window-height="480" id="namedview21" showgrid="false" inkscape:zoom="0.46003899" inkscape:cx="256.5"
    inkscape:cy="256.5" inkscape:window-x="0" inkscape:window-y="0" inkscape:window-maximized="0"
    inkscape:current-layer="svg19" />
  <title id="title2">snap-svg</title>
  <style id="style4">
    tspan {
      white-space: pre
    }
  </style>
  <g id="g17" style="fill:#ffffff">
    <path id="Layer" fill-rule="evenodd" class="shp0"
      d="M392.68 237.28C411.44 276.09 412.08 320.89 394.42 360.21L385.83 379.33C384.58 382.12 381.85 383.76 378.99 383.76C377.96 383.76 376.92 383.55 375.92 383.1C372.14 381.41 370.45 376.97 372.15 373.19L380.74 354.07C396.57 318.8 396 278.61 379.18 243.81L365.82 216.19C363.57 211.53 362.6 206.34 363.03 201.19L370.25 113.92C370.69 108.66 368.74 103.55 364.9 99.92C361.07 96.29 355.87 94.61 350.64 95.33C344.59 96.16 338.77 98.23 333.54 101.35C334.47 105.3 334.79 109.4 334.42 113.56C333.52 123.77 328.7 133.02 320.84 139.6L308.69 149.79L292.4 232.93L319.35 255.85C335.47 269.56 337.42 293.82 323.72 309.94C320.87 313.28 317.5 316.08 313.76 318.25L319.35 323C327.16 329.64 331.91 338.93 332.74 349.14C333.56 359.36 330.36 369.28 323.72 377.09C317.07 384.9 307.79 389.65 297.58 390.48C296.52 390.56 295.47 390.6 294.43 390.6C285.34 390.6 276.63 387.41 269.63 381.46L237.27 353.93L231 360.21C228.07 363.14 223.32 363.14 220.39 360.21C217.46 357.28 217.46 352.53 220.39 349.6L231.56 338.44C234.32 335.67 238.74 335.49 241.72 338.03L279.35 370.03C284.1 374.08 290.14 376.03 296.37 375.53C302.59 375.02 308.25 372.13 312.29 367.37C316.34 362.62 318.29 356.57 317.78 350.35C317.28 344.13 314.39 338.48 309.63 334.43L248.84 282.73C241.78 276.72 231.58 276.78 224.59 282.86L184.4 317.85C181.28 320.57 176.54 320.24 173.82 317.12C171.1 313.99 171.43 309.25 174.55 306.53L214.75 271.55C227.38 260.56 245.81 260.45 258.56 271.3L301.09 307.48C305.43 306.2 309.33 303.7 312.29 300.22C316.34 295.47 318.29 289.42 317.78 283.2C317.28 276.98 314.39 271.32 309.63 267.28L248.84 215.57C241.78 209.57 231.58 209.63 224.59 215.71L184.4 250.7C181.28 253.41 176.54 253.09 173.82 249.96C171.1 246.84 171.43 242.1 174.55 239.38L214.74 204.4C218.98 200.71 223.87 198.25 228.98 197.02L311.21 128.11C321.09 119.83 322.39 105.06 314.11 95.19C305.83 85.31 291.06 84.01 281.19 92.28L123.22 224.49C110.77 234.91 104.09 250.8 105.37 266.99L110.14 327.69C110.47 331.82 107.38 335.43 103.25 335.76C103.05 335.77 102.85 335.78 102.66 335.78C98.78 335.78 95.5 332.8 95.19 328.87L90.41 268.16C88.76 247.15 97.43 226.52 113.59 212.99L136.09 194.16L136.09 110.97C136.09 99.85 139.4 89.12 145.67 79.94L188.57 17.16C194.35 8.7 203.09 3 213.16 1.1C223.23 -0.79 233.44 1.35 241.9 7.13C250.36 12.91 256.07 21.65 257.96 31.72C259.86 41.79 257.72 52 251.93 60.46L244.06 71.98C241.73 75.4 237.06 76.28 233.64 73.94C230.22 71.6 229.34 66.94 231.68 63.52L239.55 52C243.07 46.84 244.37 40.62 243.22 34.49C242.07 28.36 238.59 23.04 233.44 19.52C228.28 15.99 222.07 14.69 215.93 15.84C209.8 17 204.48 20.47 200.96 25.63L158.06 88.41C153.5 95.08 151.09 102.88 151.09 110.97L151.09 181.61L197.83 142.49L197.83 118.94C197.83 115.09 198.97 111.37 201.15 108.19L213.33 90.37C215.67 86.95 220.33 86.07 223.75 88.4C227.17 90.74 228.05 95.41 225.71 98.83L213.53 116.65C213.07 117.33 212.83 118.12 212.83 118.94L212.83 129.94L271.56 80.78C287.77 67.2 312.02 69.34 325.61 85.55C326.18 86.23 326.72 86.94 327.24 87.65C333.82 83.96 341.09 81.51 348.6 80.48C358.36 79.14 368.07 82.26 375.22 89.04C382.37 95.82 386.01 105.34 385.2 115.16L377.98 202.43C377.77 204.92 378.24 207.42 379.32 209.66L392.68 237.28ZM290.4 165.12L250.12 198.87C253.1 200.18 255.95 201.93 258.56 204.15L279.29 221.79L290.4 165.12Z"
      style="fill:#ffffff" />
    <path id="path7" class="shp0"
      d="M368.9 398.73C365.12 397.04 360.68 398.72 358.99 402.5L339.78 445.28C339.34 446.24 339.12 447.29 339.12 448.35L339.12 505.24C339.12 509.38 342.48 512.74 346.62 512.74C350.76 512.74 354.12 509.38 354.12 505.24L354.12 449.96L372.67 408.65C374.37 404.87 372.68 400.43 368.9 398.73Z"
      style="fill:#ffffff" />
    <path id="path9" class="shp0"
      d="M325.36 46.67C329.5 46.67 332.86 43.32 332.86 39.17L332.86 7.5C332.86 3.36 329.5 0 325.36 0C321.22 0 317.86 3.36 317.86 7.5L317.86 39.17C317.86 43.32 321.22 46.67 325.36 46.67Z"
      style="fill:#ffffff" />
    <path id="path11" class="shp0"
      d="M357.38 54.13C358.53 54.78 359.78 55.08 361.02 55.08C363.65 55.08 366.21 53.69 367.58 51.23L382.99 23.56C385 19.94 383.7 15.37 380.09 13.36C376.47 11.34 371.9 12.64 369.88 16.26L354.47 43.93C352.46 47.55 353.76 52.12 357.38 54.13L357.38 54.13Z"
      style="fill:#ffffff" />
    <path id="path13" class="shp0"
      d="M421.4 51.65C419.22 48.13 414.6 47.05 411.07 49.23L384.15 65.9C380.62 68.08 379.54 72.71 381.72 76.23C383.14 78.52 385.59 79.78 388.1 79.78C389.45 79.78 390.81 79.42 392.04 78.66L418.97 61.98C422.49 59.8 423.58 55.18 421.4 51.65L421.4 51.65Z"
      style="fill:#ffffff" />
    <path id="path15" class="shp0"
      d="M134.5 410.59C122.74 395.81 115.23 378.07 112.78 359.3C112.25 355.19 108.49 352.31 104.38 352.83C100.27 353.37 97.37 357.13 97.91 361.24C100.71 382.72 109.3 403.01 122.77 419.93L153.71 458.82L153.71 504.75C153.71 508.89 157.07 512.25 161.21 512.25C165.35 512.25 168.71 508.89 168.71 504.75L168.71 456.2C168.71 454.5 168.14 452.86 167.08 451.53L134.5 410.59Z"
      style="fill:#ffffff" />
  </g>
</svg>