<?xml version="1.0" encoding="UTF-8" standalone="no"?>
<svg xmlns:dc="http://purl.org/dc/elements/1.1/" xmlns:cc="http://creativecommons.org/ns#"
  xmlns:rdf="http://www.w3.org/1999/02/22-rdf-syntax-ns#" xmlns:svg="http://www.w3.org/2000/svg"
  xmlns="http://www.w3.org/2000/svg" xmlns:sodipodi="http://sodipodi.sourceforge.net/DTD/sodipodi-0.dtd"
  xmlns:inkscape="http://www.inkscape.org/namespaces/inkscape" version="1.2" viewBox="0 0 512 512" width="512"
  height="512" id="svg101" sodipodi:docname="wallet.svg" inkscape:version="0.92.5 (2060ec1f9f, 2020-04-08)">
  <metadata id="metadata107">
    <rdf:RDF>
      <cc:Work rdf:about="">
        <dc:format>image/svg+xml</dc:format>
        <dc:type rdf:resource="http://purl.org/dc/dcmitype/StillImage" />
        <dc:title>wallet-svg</dc:title>
      </cc:Work>
    </rdf:RDF>
  </metadata>
  <defs id="defs105" />
  <sodipodi:namedview pagecolor="#ffffff" bordercolor="#666666" borderopacity="1" objecttolerance="10"
    gridtolerance="10" guidetolerance="10" inkscape:pageopacity="0" inkscape:pageshadow="2" inkscape:window-width="1920"
    inkscape:window-height="1024" id="namedview103" showgrid="false" inkscape:zoom="1.3037281" inkscape:cx="248.20451"
    inkscape:cy="495.35886" inkscape:window-x="0" inkscape:window-y="0" inkscape:window-maximized="1"
    inkscape:current-layer="svg101" />
  <title id="title2">wallet-svg</title>
  <style id="style4">
    tspan {
      white-space: pre
    }
  </style>
  <g id="g9" style="fill:#ffffff">
    <g id="g7" style="fill:#ffffff">
      <path id="Layer" fill-rule="evenodd" class="shp0"
        d="M353.21 113.27C353.21 127.77 341.49 139.92 325.87 142.95L325.87 145.18C325.87 149.39 322.45 152.81 318.24 152.81C314.02 152.81 310.61 149.39 310.61 145.18L310.61 142.95C294.98 139.92 283.26 127.77 283.26 113.27C283.26 109.06 286.68 105.64 290.89 105.64C295.1 105.64 298.52 109.06 298.52 113.27C298.52 119.55 303.51 124.95 310.61 127.25L310.61 97.38C294.98 94.34 283.26 82.19 283.26 67.7C283.26 53.2 294.98 41.05 310.61 38.02L310.61 35.79C310.61 31.58 314.02 28.16 318.24 28.16C322.45 28.16 325.87 31.58 325.87 35.79L325.87 38.02C341.49 41.05 353.21 53.2 353.21 67.7C353.21 71.91 349.8 75.33 345.58 75.33C341.37 75.33 337.95 71.91 337.95 67.7C337.95 61.42 332.96 56.02 325.87 53.72L325.87 83.59C341.49 86.63 353.21 98.78 353.21 113.27ZM310.61 53.72C303.51 56.02 298.52 61.42 298.52 67.7C298.52 73.98 303.51 79.38 310.61 81.67L310.61 53.72ZM337.95 113.27C337.95 106.99 332.96 101.59 325.87 99.3L325.87 127.25C332.96 124.95 337.95 119.55 337.95 113.27Z"
        style="fill:#ffffff" />
    </g>
  </g>
  <g id="g15" style="fill:#ffffff">
    <g id="g13" style="fill:#ffffff">
      <path id="path11" class="shp0"
        d="M318.24 0C268.34 0 227.75 40.59 227.75 90.49C227.75 94.7 231.17 98.12 235.38 98.12C239.59 98.12 243.01 94.7 243.01 90.49C243.01 49.01 276.76 15.26 318.24 15.26C359.72 15.26 393.46 49.01 393.46 90.49C393.46 131.97 359.72 165.71 318.24 165.71C315.25 165.71 312.25 165.54 309.31 165.19C305.13 164.7 301.33 167.69 300.84 171.87C300.34 176.05 303.34 179.85 307.52 180.34C311.05 180.76 314.65 180.97 318.24 180.97C368.13 180.97 408.72 140.38 408.72 90.49C408.72 40.59 368.13 0 318.24 0Z"
        style="fill:#ffffff" />
    </g>
  </g>
  <g id="g21" style="fill:#ffffff">
    <g id="g19" style="fill:#ffffff">
      <path id="path17" fill-rule="evenodd" class="shp0"
        d="M239.01 212.45C239.01 226.94 227.29 239.09 211.67 242.13L211.67 244.35C211.67 248.56 208.25 251.98 204.04 251.98C199.82 251.98 196.41 248.56 196.41 244.35L196.41 242.13C180.78 239.09 169.06 226.94 169.06 212.45C169.06 208.23 172.48 204.82 176.69 204.82C180.91 204.82 184.32 208.23 184.32 212.45C184.32 218.73 189.31 224.13 196.41 226.42L196.41 196.55C180.78 193.51 169.06 181.36 169.06 166.87C169.06 152.38 180.78 140.23 196.41 137.19L196.41 134.97C196.41 130.75 199.82 127.34 204.04 127.34C208.25 127.34 211.67 130.75 211.67 134.97L211.67 137.19C227.29 140.23 239.01 152.38 239.01 166.87C239.01 171.08 235.6 174.5 231.38 174.5C227.17 174.5 223.75 171.08 223.75 166.87C223.75 160.59 218.76 155.19 211.67 152.89L211.67 182.77C227.29 185.8 239.01 197.95 239.01 212.45ZM196.41 152.89C189.31 155.19 184.32 160.59 184.32 166.87C184.32 173.15 189.31 178.55 196.41 180.85L196.41 152.89ZM223.75 212.44C223.75 206.17 218.76 200.77 211.67 198.47L211.67 226.42C218.76 224.13 223.75 218.72 223.75 212.44Z"
        style="fill:#ffffff" />
    </g>
  </g>
  <g id="g27" style="fill:#ffffff">
    <g id="g25" style="fill:#ffffff">
      <path id="path23" class="shp0"
        d="M168.03 114.63C165.87 111.01 161.18 109.84 157.57 112C130.42 128.28 113.55 158.04 113.55 189.66C113.55 209.16 119.66 227.72 131.21 243.36C132.71 245.38 135.01 246.46 137.35 246.46C138.93 246.46 140.52 245.97 141.88 244.96C145.27 242.46 145.99 237.68 143.48 234.29C133.88 221.3 128.81 205.87 128.81 189.66C128.81 162.97 142.49 138.84 165.41 125.09C169.03 122.92 170.2 118.24 168.03 114.63Z"
        style="fill:#ffffff" />
    </g>
  </g>
  <g id="g33" style="fill:#ffffff">
    <g id="g31" style="fill:#ffffff">
      <path id="path29" class="shp0"
        d="M204.04 99.17C197.65 99.17 191.27 99.84 185.07 101.17C180.95 102.05 178.32 106.1 179.2 110.22C180.08 114.34 184.14 116.97 188.26 116.09C193.41 114.99 198.72 114.43 204.04 114.43C245.52 114.43 279.27 148.18 279.27 189.66C279.27 205.87 274.19 221.3 264.6 234.29C262.09 237.68 262.81 242.46 266.2 244.96C267.56 245.97 269.15 246.46 270.73 246.46C273.06 246.46 275.37 245.39 276.87 243.36C288.42 227.73 294.52 209.16 294.52 189.66C294.52 139.77 253.93 99.17 204.04 99.17Z"
        style="fill:#ffffff" />
    </g>
  </g>
  <g id="g39" style="fill:#ffffff">
    <g id="g37" style="fill:#ffffff">
      <path id="path35" class="shp0"
        d="M401.21 190.67L309.07 190.67C304.86 190.67 301.44 194.09 301.44 198.3C301.44 202.52 304.86 205.93 309.07 205.93L401.21 205.93C404.16 205.93 406.56 208.33 406.56 211.28L406.56 221.03L304.32 221.03C300.11 221.03 296.69 224.44 296.69 228.66C296.69 232.87 300.11 236.29 304.32 236.29L406.56 236.29L406.56 241.44C406.56 245.65 409.97 249.07 414.19 249.07C418.4 249.07 421.82 245.65 421.82 241.44L421.82 211.28C421.82 199.91 412.57 190.67 401.21 190.67Z"
        style="fill:#ffffff" />
    </g>
  </g>
  <g id="g45" style="fill:#ffffff">
    <g id="g43" style="fill:#ffffff">
      <path id="path41" class="shp0"
        d="M414.19 324.41C418.4 324.41 421.82 321 421.82 316.78L421.82 278.69C421.82 264.23 410.05 252.46 395.59 252.46L114.29 252.46C101.49 252.46 91.07 242.07 91.03 229.28L91.03 229.2C91.03 229.19 91.03 229.18 91.03 229.17C91.04 220.05 96.41 211.74 104.73 207.98C108.57 206.25 110.28 201.73 108.55 197.89C106.81 194.05 102.29 192.34 98.45 194.07C84.67 200.29 75.77 214.08 75.77 229.2C75.77 229.23 75.77 229.25 75.77 229.28L75.77 473.47C75.77 494.72 93.05 512 114.29 512L395.59 512C410.05 512 421.82 500.23 421.82 485.77L421.82 435.81C421.82 431.6 418.4 428.18 414.19 428.18C409.97 428.18 406.56 431.6 406.56 435.81L406.56 485.77C406.56 491.82 401.63 496.74 395.59 496.74L114.29 496.74C101.46 496.74 91.03 486.3 91.03 473.47L91.03 259.88C97.5 264.8 105.56 267.72 114.29 267.72L395.59 267.72C401.64 267.72 406.56 272.65 406.56 278.69L406.56 316.78C406.56 321 409.97 324.41 414.19 324.41Z"
        style="fill:#ffffff" />
    </g>
  </g>
  <g id="g51" style="fill:#ffffff">
    <g id="g49" style="fill:#ffffff">
      <path id="path47" class="shp0"
        d="M415.13 330.5L360.75 330.5C335.5 330.5 314.95 351.04 314.95 376.3C314.95 401.55 335.5 422.09 360.75 422.09L374.57 422.09C378.79 422.09 382.2 418.68 382.2 414.46C382.2 410.25 378.79 406.83 374.57 406.83L360.75 406.83C343.91 406.83 330.21 393.13 330.21 376.29C330.21 359.46 343.91 345.76 360.75 345.76L415.13 345.76C418.35 345.76 420.98 348.38 420.98 351.6L420.98 400.99C420.98 404.21 418.35 406.83 415.13 406.83L400.01 406.83C395.79 406.83 392.38 410.25 392.38 414.46C392.38 418.68 395.79 422.09 400.01 422.09L415.13 422.09C426.77 422.09 436.24 412.62 436.24 400.99L436.24 351.61C436.24 339.96 426.77 330.5 415.13 330.5Z"
        style="fill:#ffffff" />
    </g>
  </g>
  <g id="g57" style="fill:#ffffff">
    <g id="g55" style="fill:#ffffff">
      <path id="path53" fill-rule="evenodd" class="shp0"
        d="M382.8 376.3C382.8 388.92 372.53 399.19 359.9 399.19C347.28 399.19 337.01 388.92 337.01 376.3C337.01 363.67 347.28 353.4 359.9 353.4C372.53 353.4 382.8 363.67 382.8 376.3ZM367.54 376.29C367.54 372.08 364.12 368.66 359.9 368.66C355.69 368.66 352.26 372.08 352.26 376.29C352.26 380.51 355.69 383.93 359.9 383.93C364.12 383.93 367.54 380.51 367.54 376.29Z"
        style="fill:#ffffff" />
    </g>
  </g>
  <g id="g63" style="fill:#ffffff">
    <g id="g61" style="fill:#ffffff">
      <path id="path59" class="shp0"
        d="M152.75 38.59C148.53 38.59 145.12 42.01 145.12 46.23L145.12 84.88C145.12 89.09 148.53 92.51 152.75 92.51C156.96 92.51 160.38 89.09 160.38 84.88L160.38 46.23C160.38 42.01 156.96 38.59 152.75 38.59Z"
        style="fill:#ffffff" />
    </g>
  </g>
  <g id="g69" style="fill:#ffffff">
    <g id="g67" style="fill:#ffffff">
      <path id="path65" class="shp0"
        d="M190.89 23.34C186.68 23.34 183.26 26.75 183.26 30.96L183.26 69.62C183.26 73.83 186.68 77.25 190.89 77.25C195.11 77.25 198.52 73.83 198.52 69.62L198.52 30.96C198.52 26.75 195.1 23.34 190.89 23.34Z"
        style="fill:#ffffff" />
    </g>
  </g>
  <g id="g71" style="fill:#ffffff" />
  <g id="g73" style="fill:#ffffff" />
  <g id="g75" style="fill:#ffffff" />
  <g id="g77" style="fill:#ffffff" />
  <g id="g79" style="fill:#ffffff" />
  <g id="g81" style="fill:#ffffff" />
  <g id="g83" style="fill:#ffffff" />
  <g id="g85" style="fill:#ffffff" />
  <g id="g87" style="fill:#ffffff" />
  <g id="g89" style="fill:#ffffff" />
  <g id="g91" style="fill:#ffffff" />
  <g id="g93" style="fill:#ffffff" />
  <g id="g95" style="fill:#ffffff" />
  <g id="g97" style="fill:#ffffff" />
  <g id="g99" style="fill:#ffffff" />
</svg>