<?xml version="1.0" encoding="UTF-8" standalone="no"?>
<svg xmlns:dc="http://purl.org/dc/elements/1.1/" xmlns:cc="http://creativecommons.org/ns#"
  xmlns:rdf="http://www.w3.org/1999/02/22-rdf-syntax-ns#" xmlns:svg="http://www.w3.org/2000/svg"
  xmlns="http://www.w3.org/2000/svg" xmlns:sodipodi="http://sodipodi.sourceforge.net/DTD/sodipodi-0.dtd"
  xmlns:inkscape="http://www.inkscape.org/namespaces/inkscape" version="1.2" viewBox="0 0 64 64" width="64" height="64"
  id="svg11" sodipodi:docname="warehouse.svg" inkscape:version="0.92.5 (2060ec1f9f, 2020-04-08)">
  <metadata id="metadata17">
    <rdf:RDF>
      <cc:Work rdf:about="">
        <dc:format>image/svg+xml</dc:format>
        <dc:type rdf:resource="http://purl.org/dc/dcmitype/StillImage" />
      </cc:Work>
    </rdf:RDF>
  </metadata>
  <defs id="defs15" />
  <sodipodi:namedview pagecolor="#ffffff" bordercolor="#666666" borderopacity="1" objecttolerance="10"
    gridtolerance="10" guidetolerance="10" inkscape:pageopacity="0" inkscape:pageshadow="2" inkscape:window-width="776"
    inkscape:window-height="480" id="namedview13" showgrid="false" inkscape:zoom="3.6875" inkscape:cx="32"
    inkscape:cy="32" inkscape:window-x="0" inkscape:window-y="0" inkscape:window-maximized="0"
    inkscape:current-layer="svg11" />
  <title id="title2">warehouse-svg</title>
  <style id="style4">
    tspan {
      white-space: pre
    }
  </style>
  <g id="g9" style="fill:#ffffff">
    <path id="Layer" fill-rule="evenodd" class="shp0"
      d="M63 61L63 63L1 63L1 61L6 61L6 25.55L5.53 25.85C5.09 26.12 4.51 26.02 4.2 25.6L1.2 21.6C1.03 21.38 0.97 21.09 1.02 20.82C1.07 20.55 1.23 20.3 1.47 20.16L31.47 1.16C31.79 0.95 32.21 0.95 32.54 1.16L62.54 20.16C62.77 20.3 62.93 20.55 62.98 20.82C63.03 21.09 62.97 21.38 62.8 21.6L59.8 25.6C59.6 25.86 59.3 26 59 26C58.82 26 58.63 25.95 58.47 25.85L58 25.55L58 49L56 49L56 24.29L32 9.18L8 24.29L8 61L12 61L12 32C12 31.45 12.45 31 13 31L51 31C51.55 31 52 31.45 52 32L52 45L53 45C53.55 45 54 45.45 54 46L54 51L57 51C57.55 51 58 51.45 58 52L58 57L60 57L60 59L57.82 59C57.93 59.31 58 59.65 58 60C58 60.35 57.93 60.69 57.82 61L63 61ZM31.47 7.15C31.63 7.05 31.81 7 32 7C32.19 7 32.37 7.05 32.53 7.15L58.75 23.66L60.55 21.27L32 3.18L3.45 21.27L5.25 23.66L31.47 7.15ZM55 59C54.45 59 54 59.45 54 60C54 60.55 54.45 61 55 61C55.55 61 56 60.55 56 60C56 59.45 55.55 59 55 59ZM50 45L50 41L14 41L14 43L21 43C21.55 43 22 43.45 22 44L22 49L29 49C29.55 49 30 49.45 30 50L30 55L37 55C37.55 55 38 55.45 38 56L38 61L42.18 61C42.07 60.69 42 60.35 42 60C42 59.65 42.07 59.31 42.18 59L41 59C40.45 59 40 58.55 40 58L40 45L37 45L37 43L41 43C41.55 43 42 43.45 42 44L42 51L44 51L44 46C44 45.45 44.45 45 45 45L50 45ZM42 57L48 57L48 53L46 53L46 55L44 55L44 53L42 53L42 57ZM48 60C48 60.35 47.93 60.69 47.81 61L52.18 61C52.07 60.69 52 60.35 52 60C52 59.65 52.07 59.31 52.19 59L47.82 59C47.93 59.31 48 59.65 48 60ZM56 53L54 53L54 55L52 55L52 53L50 53L50 57L56 57L56 53ZM52 51L52 47L50 47L50 49L48 49L48 47L46 47L46 51L52 51ZM45 61C45.55 61 46 60.55 46 60C46 59.45 45.55 59 45 59C44.45 59 44 59.45 44 60C44 60.55 44.45 61 45 61ZM20 55L20 51L18 51L18 53L16 53L16 51L14 51L14 55L20 55ZM16 47L16 45L14 45L14 49L20 49L20 45L18 45L18 47L16 47ZM24 53L24 51L22 51L22 55L28 55L28 51L26 51L26 53L24 53ZM22 61L28 61L28 57L26 57L26 59L24 59L24 57L22 57L22 61ZM30 61L36 61L36 57L34 57L34 59L32 59L32 57L30 57L30 61ZM50 37L14 37L14 39L50 39L50 37ZM14 33L14 35L50 35L50 33L14 33ZM14 61L20 61L20 57L18 57L18 59L16 59L16 57L14 57L14 61Z"
      style="fill:#ffffff" />
    <path id="path7" fill-rule="evenodd" class="shp0"
      d="M44 21C44.55 21 45 21.45 45 22L45 28C45 28.55 44.55 29 44 29L20 29C19.45 29 19 28.55 19 28L19 22C19 21.45 19.45 21 20 21L44 21ZM43 23L21 23L21 27L43 27L43 23Z"
      style="fill:#ffffff" />
  </g>
</svg>