<?xml version="1.0" encoding="UTF-8" standalone="no"?>
<svg xmlns:dc="http://purl.org/dc/elements/1.1/" xmlns:cc="http://creativecommons.org/ns#"
  xmlns:rdf="http://www.w3.org/1999/02/22-rdf-syntax-ns#" xmlns:svg="http://www.w3.org/2000/svg"
  xmlns="http://www.w3.org/2000/svg" xmlns:sodipodi="http://sodipodi.sourceforge.net/DTD/sodipodi-0.dtd"
  xmlns:inkscape="http://www.inkscape.org/namespaces/inkscape" version="1.2" viewBox="0 0 64 64" width="64" height="64"
  id="svg19" sodipodi:docname="water-filter.svg" inkscape:version="0.92.5 (2060ec1f9f, 2020-04-08)">
  <metadata id="metadata25">
    <rdf:RDF>
      <cc:Work rdf:about="">
        <dc:format>image/svg+xml</dc:format>
        <dc:type rdf:resource="http://purl.org/dc/dcmitype/StillImage" />
      </cc:Work>
    </rdf:RDF>
  </metadata>
  <defs id="defs23" />
  <sodipodi:namedview pagecolor="#ffffff" bordercolor="#666666" borderopacity="1" objecttolerance="10"
    gridtolerance="10" guidetolerance="10" inkscape:pageopacity="0" inkscape:pageshadow="2" inkscape:window-width="776"
    inkscape:window-height="480" id="namedview21" showgrid="false" inkscape:zoom="3.6875" inkscape:cx="32"
    inkscape:cy="32" inkscape:window-x="0" inkscape:window-y="0" inkscape:window-maximized="0"
    inkscape:current-layer="svg19" />
  <title id="title2">water-filter-svg</title>
  <style id="style4">
    tspan {
      white-space: pre
    }
  </style>
  <path id="Layer" fill-rule="evenodd" class="shp0"
    d="M57.01 8.5C60.87 8.5 64.01 11.64 64.01 15.5C64.01 15.5 64 15.5 64 15.51L64 21.5C64 22.06 63.56 22.5 63 22.5L60 22.5C59.45 22.5 59 22.06 59 21.5L59 15.5C59 14.39 58.11 13.5 57 13.5C55.9 13.5 55.01 14.39 55.01 15.5L55.01 36.51L57.01 36.51L57.01 33.5C57.01 32.95 57.45 32.5 58.01 32.5C58.56 32.5 59.01 32.95 59.01 33.5L59.01 43.5C59.01 44.05 58.56 44.5 58.01 44.5L55.01 44.5L55.01 45.5C55.56 45.51 56 45.95 56 46.5C56 47.06 55.56 47.5 55.01 47.5L55.01 49.5C55.01 50.06 54.56 50.5 54.01 50.5L53.4 50.5C52.92 53.34 50.45 55.5 47.49 55.5C47.48 55.5 47.48 55.5 47.48 55.5L5.99 55.5C2.69 55.5 0.01 52.82 0 49.53C0 49.52 -0.01 49.51 -0.01 49.5L-0.01 17.5C-0.01 15.08 1.72 13.06 4 12.6L4 11.5C4 9.84 5.34 8.5 7 8.5L43 8.5C44.65 8.5 46 9.84 46 11.5L46 18.49C46 18.49 46 18.5 46 18.5C46 18.78 45.89 19.03 45.7 19.21C45.52 19.39 45.27 19.5 45 19.5C44.99 19.5 44.99 19.5 44.99 19.5L44 19.5L44 44.5C44 47.8 41.31 50.49 38 50.49C34.69 50.49 32 47.8 32 44.5L32 19.5L31 19.5L31 44.5C31 47.8 28.31 50.49 25 50.49C21.69 50.49 19 47.8 19 44.5L19 19.5L18 19.5L18 44.5C18 47.8 15.31 50.49 12 50.49C8.69 50.49 6 47.8 6 44.5L6 19.5L5.01 19.5C5 19.5 5 19.5 5 19.5C4.72 19.5 4.47 19.39 4.29 19.21C4.11 19.03 4 18.78 4 18.5C4 18.5 4 18.5 4 18.49L4 14.68C2.83 15.09 1.99 16.19 1.99 17.5L1.99 49.48C1.99 49.49 2 49.5 2 49.5C2 51.71 3.79 53.5 5.99 53.5L47.49 53.5C47.49 53.5 47.49 53.5 47.5 53.5C49.35 53.5 50.9 52.22 51.35 50.5L51.01 50.5C50.45 50.5 50.01 50.06 50.01 49.5L50.01 47.5C49.45 47.5 49.01 47.06 49.01 46.5C49.01 45.95 49.45 45.5 50.01 45.5L50.01 44.5L48.01 44.5C47.45 44.5 47.01 44.05 47.01 43.5L47.01 37.51C47.01 36.96 47.45 36.51 48.01 36.51L50.01 36.51L50.01 15.49C50.01 11.64 53.15 8.5 57.01 8.5ZM16 23.5L8 23.5L8 44.5C8 46.7 9.79 48.49 12 48.49C14.2 48.49 16 46.7 16 44.5L16 23.5ZM16 19.5L14.01 19.5C14 19.5 14 19.5 14 19.5C13.99 19.5 13.99 19.5 13.99 19.5L8 19.5L8 21.5L16 21.5L16 19.5ZM6 17.5L8.99 17.5L9 15.49C9 15.42 9.02 15.36 9.04 15.3C9.05 15.23 9.05 15.16 9.08 15.1C9.1 15.06 9.13 15.03 9.15 14.99C9.2 14.92 9.23 14.85 9.29 14.79C9.32 14.76 9.35 14.75 9.38 14.73C9.45 14.67 9.52 14.61 9.61 14.57C9.73 14.52 9.86 14.5 10 14.5C10 14.5 14 14.5 14 14.5C14.55 14.5 15 14.94 15 15.5L15 17.5L21.99 17.5L22 15.49C22 15.42 22.03 15.36 22.04 15.3C22.06 15.23 22.06 15.16 22.08 15.1C22.1 15.06 22.14 15.03 22.16 14.99C22.2 14.92 22.24 14.85 22.3 14.79C22.32 14.76 22.36 14.75 22.38 14.73C22.46 14.67 22.53 14.61 22.62 14.57C22.74 14.52 22.87 14.5 23 14.5C23.01 14.5 27 14.5 27 14.5C27.56 14.5 28 14.94 28 15.5L28 17.5L35 17.5L35.01 15.49C35.01 15.42 35.04 15.36 35.05 15.3C35.06 15.23 35.07 15.16 35.09 15.1C35.11 15.06 35.14 15.03 35.17 14.99C35.21 14.92 35.25 14.85 35.31 14.79C35.33 14.76 35.36 14.75 35.39 14.73C35.46 14.67 35.53 14.61 35.62 14.57C35.74 14.52 35.87 14.5 36.01 14.5C36.01 14.5 40.01 14.5 40.01 14.5C40.56 14.5 41.01 14.94 41.01 15.5L41.01 17.5L44 17.5L44 11.5C44 10.95 43.55 10.5 43 10.5L7 10.5C6.45 10.5 6 10.95 6 11.5L6 17.5ZM29 23.5L21 23.5L21 44.5C21 46.7 22.79 48.49 25 48.49C27.2 48.49 29 46.7 29 44.5L29 23.5ZM29 19.5L27.01 19.5C27.01 19.5 27.01 19.5 27 19.5C27 19.5 27 19.5 26.99 19.5L21 19.5L21 21.5L29 21.5L29 19.5ZM26 17.5L26 16.5L24 16.5L23.99 17.5L26 17.5ZM42 23.5L34 23.5L34 44.5C34 46.7 35.79 48.49 38 48.49C40.21 48.49 42 46.7 42 44.5L42 23.5ZM42 19.5L40.02 19.5C40.02 19.5 40.01 19.5 40.01 19.5C40.01 19.5 40 19.5 40 19.5L34 19.5L34 21.5L42 21.5L42 19.5ZM39.01 17.5L39.01 16.5L37.01 16.5L37 17.5L39.01 17.5ZM13 17.5L13 16.5L10.99 16.5L10.99 17.5L13 17.5ZM53.01 48.5L53.01 47.5L52.01 47.5L52.01 48.5L52.48 48.5C52.48 48.5 52.48 48.5 52.49 48.5C52.49 48.5 52.49 48.5 52.5 48.5L53.01 48.5ZM53.01 44.5L52.01 44.5L52.01 45.5L53.01 45.5L53.01 44.5ZM49.01 38.51L49.01 42.5L57.01 42.5L57.01 38.51L49.01 38.51ZM62.01 15.5C62.01 15.49 62.01 15.49 62.01 15.49C62 12.74 59.76 10.5 57.01 10.5C54.25 10.5 52.01 12.74 52.01 15.5L52.01 36.51L53.01 36.51L53.01 15.5C53.01 13.29 54.8 11.5 57.01 11.5C59.21 11.5 61.01 13.29 61.01 15.5L61.01 17.5L62.01 17.5L62.01 15.5ZM62.01 19.5L61.01 19.5L61.01 20.5L62.01 20.5L62.01 19.5Z"
    style="fill:#ffffff" />
  <path id="path7" class="shp0"
    d="M10 33.5L14 33.5C14.55 33.5 15 33.05 15 32.5C15 31.95 14.55 31.5 14 31.5L10 31.5C9.44 31.5 9 31.95 9 32.5C9 33.05 9.44 33.5 10 33.5Z"
    style="fill:#ffffff" />
  <path id="path9" class="shp0"
    d="M13 34.5L11 34.5C10.44 34.5 10 34.95 10 35.5C10 36.05 10.44 36.5 11 36.5L13 36.5C13.55 36.5 14 36.05 14 35.5C14 34.95 13.55 34.5 13 34.5Z"
    style="fill:#ffffff" />
  <path id="path11" class="shp0"
    d="M23 33.5L27 33.5C27.55 33.5 28 33.05 28 32.5C28 31.95 27.55 31.5 27 31.5L23 31.5C22.45 31.5 22 31.95 22 32.5C22 33.05 22.45 33.5 23 33.5Z"
    style="fill:#ffffff" />
  <path id="path13" class="shp0"
    d="M26 34.5L24 34.5C23.45 34.5 23 34.95 23 35.5C23 36.05 23.45 36.5 24 36.5L26 36.5C26.55 36.5 27 36.05 27 35.5C27 34.95 26.55 34.5 26 34.5Z"
    style="fill:#ffffff" />
  <path id="path15" class="shp0"
    d="M36 33.5L40 33.5C40.55 33.5 41 33.05 41 32.5C41 31.95 40.55 31.5 40 31.5L36 31.5C35.45 31.5 35 31.95 35 32.5C35 33.05 35.45 33.5 36 33.5Z"
    style="fill:#ffffff" />
  <path id="path17" class="shp0"
    d="M39 34.5L37 34.5C36.45 34.5 36 34.95 36 35.5C36 36.05 36.45 36.5 37 36.5L39 36.5C39.55 36.5 40 36.05 40 35.5C40 34.95 39.55 34.5 39 34.5Z"
    style="fill:#ffffff" />
</svg>